<svg width="645" height="243" viewBox="0 0 645 243" fill="none" xmlns="http://www.w3.org/2000/svg">
<g clip-path="url(#clip0_757_14295)">
<path d="M266.21 95.6802C266.21 71.9602 246.99 52.7402 223.27 52.7402H137.4V155.79H85.8697C81.1297 155.79 77.2797 151.94 77.2797 147.2C77.2797 142.46 81.1297 138.61 85.8697 138.61H103.04V147.2L128.8 121.44L103.04 95.6802V104.27H85.8697C81.1297 104.27 77.2797 100.42 77.2797 95.6802C77.2797 90.9402 81.1297 87.0902 85.8697 87.0902H120.22V52.7402H85.8697C62.1497 52.7402 42.9297 71.9602 42.9297 95.6802C42.9297 105.35 46.1197 114.27 51.5097 121.44C46.1197 128.62 42.9297 137.53 42.9297 147.2C42.9297 170.92 62.1497 190.14 85.8697 190.14H171.74V87.0902H223.26C228 87.0902 231.85 90.9402 231.85 95.6802C231.85 100.42 228 104.27 223.26 104.27H206.1V95.6802L180.34 121.44L206.1 147.2V138.61H223.27C228.01 138.61 231.86 142.46 231.86 147.2C231.86 151.94 228.01 155.79 223.27 155.79H188.92V190.14H223.27C246.99 190.14 266.21 170.92 266.21 147.2C266.21 137.53 263.02 128.61 257.63 121.44C263.02 114.27 266.21 105.35 266.21 95.6802Z" fill="#177533"/>
<path d="M163.16 35.5697H145.98L137.4 1.21973H171.75L163.16 35.5697Z" fill="#FFD333"/>
<path d="M145.98 207.32H163.16L171.75 241.67H137.4L145.98 207.32Z" fill="#FFD333"/>
<path d="M274.8 130.03V112.86L309.14 104.27V138.62L274.8 130.03Z" fill="#FFD333"/>
<path d="M34.35 112.86V130.03L0 138.62V104.27L34.35 112.86Z" fill="#FFD333"/>
<path d="M233.51 212.53L245.65 200.38L276.02 218.6L251.73 242.89L233.51 212.53Z" fill="#FFD333"/>
<path d="M75.6299 30.36L63.4899 42.51L33.1299 24.29L57.4199 0L75.6299 30.36Z" fill="#FFD333"/>
<path d="M245.65 42.51L233.51 30.36L251.73 0L276.02 24.29L245.65 42.51Z" fill="#FFD333"/>
<path d="M63.4899 200.38L75.6299 212.53L57.4199 242.89L33.1299 218.6L63.4899 200.38Z" fill="#FFD333"/>
<path d="M322.64 113.39V51.1797H344.99C352.99 51.1797 359.08 52.6497 363.26 55.5797C367.43 58.5097 369.52 62.7697 369.52 68.3597C369.52 71.5797 368.78 74.3297 367.3 76.6097C365.82 78.8897 363.64 80.5697 360.76 81.6497C364.01 82.4997 366.5 84.0997 368.24 86.4397C369.98 88.7797 370.85 91.6297 370.85 94.9897C370.85 101.09 368.92 105.67 365.06 108.73C361.2 111.79 355.48 113.35 347.9 113.41H322.64V113.39ZM337.64 77.1197H345.46C348.73 77.0897 351.07 76.4897 352.47 75.3197C353.86 74.1497 354.56 72.4197 354.56 70.1297C354.56 67.4997 353.81 65.6097 352.3 64.4497C350.79 63.2897 348.35 62.7097 344.99 62.7097H337.64V77.1197ZM337.64 86.9397V101.85H347.47C350.18 101.85 352.26 101.23 353.71 99.9897C355.16 98.7497 355.89 97.0097 355.89 94.7597C355.89 89.5797 353.31 86.9697 348.16 86.9397H337.64Z" fill="#177533"/>
<path d="M417.67 86.9897H394.08V101.86H421.94V113.4H379.08V51.1797H422.02V62.7597H394.08V75.8797H417.67V86.9897Z" fill="#177533"/>
<path d="M449.2 90.2299L443.05 96.9799V113.39H428.05V51.1799H443.05V78.6099L448.26 70.6999L461.68 51.1699H480.22L459.2 78.6999L480.22 113.4H462.45L449.2 90.2299Z" fill="#177533"/>
<path d="M519.359 101.77H498.809L495.219 113.39H479.199L502.019 51.1797H516.119L539.109 113.39H522.999L519.359 101.77ZM502.389 90.1897H515.759L509.049 68.6097L502.389 90.1897Z" fill="#177533"/>
<path d="M575.72 96.8501C575.72 94.6601 574.94 92.9501 573.39 91.7201C571.84 90.5001 569.11 89.2301 565.21 87.9201C561.31 86.6101 558.12 85.3401 555.64 84.1201C547.58 80.1601 543.55 74.7201 543.55 67.8001C543.55 64.3501 544.55 61.3101 546.56 58.6801C548.57 56.0501 551.41 53.9901 555.08 52.5301C558.75 51.0601 562.88 50.3301 567.47 50.3301C571.94 50.3301 575.95 51.1301 579.5 52.7201C583.05 54.3201 585.8 56.5901 587.77 59.5401C589.73 62.4901 590.72 65.8601 590.72 69.6401H575.77C575.77 67.1001 574.99 65.1401 573.44 63.7401C571.89 62.3501 569.79 61.6501 567.14 61.6501C564.46 61.6501 562.35 62.2401 560.8 63.4201C559.25 64.6001 558.47 66.1101 558.47 67.9301C558.47 69.5301 559.32 70.9701 561.03 72.2701C562.74 73.5701 565.74 74.9101 570.05 76.2901C574.35 77.6701 577.88 79.1601 580.65 80.7501C587.37 84.6201 590.73 89.9701 590.73 96.7701C590.73 102.21 588.68 106.48 584.58 109.59C580.48 112.7 574.85 114.25 567.7 114.25C562.66 114.25 558.09 113.35 554.01 111.54C549.92 109.73 546.85 107.25 544.78 104.11C542.71 100.96 541.68 97.3401 541.68 93.2401H556.72C556.72 96.5701 557.58 99.0301 559.3 100.61C561.02 102.19 563.82 102.98 567.7 102.98C570.18 102.98 572.14 102.45 573.58 101.38C575 100.3 575.72 98.7901 575.72 96.8501Z" fill="#177533"/>
<path d="M322.64 192.56V130.35H343.96C351 130.35 356.35 131.76 360.03 134.58C363.7 137.4 365.54 141.6 365.54 147.18C365.54 150.03 364.77 152.59 363.23 154.87C361.69 157.15 359.44 158.91 356.48 160.17C359.84 161.08 362.44 162.8 364.28 165.32C366.12 167.84 367.04 170.87 367.04 174.4C367.04 180.24 365.17 184.73 361.42 187.86C357.67 190.99 352.31 192.56 345.33 192.56H322.64ZM333.45 156.54H344.05C347.41 156.54 350.04 155.78 351.93 154.25C353.82 152.73 354.77 150.57 354.77 147.78C354.77 144.7 353.89 142.48 352.14 141.11C350.39 139.74 347.66 139.06 343.96 139.06H333.45V156.54ZM333.45 164.49V183.93H345.46C348.85 183.93 351.5 183.09 353.41 181.41C355.32 179.73 356.27 177.39 356.27 174.4C356.27 167.93 352.96 164.63 346.36 164.49H333.45Z" fill="#FFD333"/>
<path d="M414.2 164.79H388.65V183.93H418.52V192.56H377.84V130.35H418.22V139.07H388.65V156.25H414.2V164.79Z" fill="#FFD333"/>
<path d="M450.179 168.63H438.129V192.56H427.319V130.35H449.199C456.379 130.35 461.919 131.96 465.819 135.18C469.719 138.4 471.669 143.06 471.669 149.16C471.669 153.32 470.669 156.81 468.659 159.62C466.649 162.43 463.849 164.59 460.259 166.1L474.229 192.01V192.57H462.649L450.179 168.63ZM438.129 159.92H449.239C452.889 159.92 455.729 159 457.789 157.16C459.839 155.32 460.869 152.81 460.869 149.62C460.869 146.29 459.919 143.71 458.029 141.89C456.139 140.07 453.309 139.13 449.549 139.07H438.139V159.92H438.129Z" fill="#FFD333"/>
<path d="M499.79 165.689L492.74 173.169V192.569H481.93V130.359H492.74V159.539L498.72 152.149L516.92 130.359H530L506.88 157.919L531.32 192.569H518.5L499.79 165.689Z" fill="#FFD333"/>
<path d="M571.909 178.079H547.809L542.769 192.569H531.529L555.029 130.359H564.729L588.269 192.569H576.999L571.909 178.079ZM550.849 169.359H568.879L559.859 143.549L550.849 169.359Z" fill="#FFD333"/>
<path d="M644.719 192.56H633.949V164.96H606.129V192.56H595.319V130.35H606.129V156.24H633.949V130.35H644.719V192.56Z" fill="#FFD333"/>
</g>
<defs>
<clipPath id="clip0_757_14295">
<rect width="644.72" height="242.89" fill="white"/>
</clipPath>
</defs>
</svg>
