<svg width="44" height="44" viewBox="0 0 44 44" fill="none" xmlns="http://www.w3.org/2000/svg">
<rect x="0.726562" y="11.6562" width="42.9659" height="21.4445" rx="3.61818" fill="#C5ECFF"/>
<path d="M8.61719 14.5032C8.61719 7.00873 14.6923 0.933594 22.1868 0.933594C29.6813 0.933594 35.7564 7.00873 35.7564 14.5032C35.7564 21.9977 29.6813 28.07 22.1868 28.07C14.6923 28.07 8.61719 21.9977 8.61719 14.5032Z" fill="url(#paint0_linear_295_16672)"/>
<path d="M33.1864 8.49107C33.1864 12.3714 28.253 15.5134 22.1664 15.5134C16.0799 15.5134 11.1465 12.3714 11.1465 8.49107C11.1465 4.61077 16.0799 1.46875 22.1664 1.46875C28.253 1.46875 33.1864 4.61363 33.1864 8.49393V8.49107Z" fill="url(#paint1_linear_295_16672)"/>
<path d="M26.1125 24.9905C25.812 25.1508 25.4858 25.1851 25.1653 25.2767C24.8992 25.3511 24.7733 25.4942 24.613 25.7059C24.2038 26.2439 23.3768 25.9377 22.8245 25.849C22.5212 25.8004 22.215 25.7861 21.9088 25.7718C21.5769 25.7546 21.2077 25.7202 20.8872 25.8347C20.6526 25.9177 20.478 26.0894 20.2234 26.1409C19.7941 26.2267 19.3363 26.1409 18.907 26.1008C18.2632 26.0407 17.625 26.0894 16.9812 26.1552C16.6636 26.1895 16.3459 26.2267 16.0311 26.2697C17.9255 27.2913 20.0917 27.8693 22.3953 27.8693C23.7145 27.8693 24.9908 27.6747 26.1955 27.3199C26.0753 27.2798 25.9551 27.2426 25.8263 27.2169C25.6976 27.1911 25.2054 27.1825 25.1653 27.008C25.1167 26.7876 25.6947 26.6216 25.8263 26.5787C26.1869 26.4614 26.5703 26.4213 26.928 26.2926C27.446 26.1066 27.7922 25.3196 27.6206 24.8017C27.3601 24.0176 26.4959 24.7845 26.1096 24.9877L26.1125 24.9905ZM16.3516 5.95244C16.778 6.5362 16.9612 7.24301 17.2702 7.88401C17.5764 8.51356 18.04 8.98572 18.5608 9.44357C19.1388 9.95007 19.6797 10.4823 20.2234 11.0232C20.6955 11.4953 21.0475 11.7042 21.5969 11.7443C21.946 11.77 22.2866 11.9045 22.547 11.9932C22.8417 12.0963 23.0878 12.4396 23.2681 12.6428C23.5056 12.9118 23.9463 13.1321 24.1781 12.9633C24.407 12.7945 23.8089 12.5856 23.7774 12.3166C23.7517 12.0676 23.6229 11.7987 23.4484 11.7328C23.2709 11.667 22.9104 11.6384 22.8074 11.584C22.5069 11.4238 22.2293 11.0718 21.9374 10.8858C21.7085 10.7399 20.8186 10.2992 21.3594 9.99585C21.6198 9.84991 21.9632 9.82988 22.2522 9.78982C22.6156 9.74117 22.9848 9.70111 23.3368 9.58379C24.0006 9.36345 24.2696 8.82833 24.6445 8.29035C25.1081 7.62074 25.7605 7.21154 26.5246 6.95686C26.8422 6.85098 27.177 6.7823 27.4861 6.65639C27.6434 6.59343 27.8151 6.50472 27.7894 6.31014C27.7608 6.09552 27.5633 5.88662 27.4403 5.71779C27.2514 5.46025 27.0683 5.20271 26.9109 4.92513C26.6362 4.43008 26.5331 3.83773 26.2069 3.37129C25.8092 2.80184 25.0823 2.60153 24.4242 2.5443C23.5914 2.47276 22.7902 2.6559 21.9746 2.79325C21.3279 2.90199 20.7613 2.85621 20.189 2.5214C19.5909 2.16943 19.0616 1.72875 18.3547 1.62287C16.3488 2.25528 14.5488 3.34554 13.0723 4.77061C14.2827 4.81067 15.5905 4.91941 16.3488 5.95816L16.3516 5.95244ZM30.1158 14.6688C29.6351 14.4141 29.1343 14.148 28.6994 13.8218C27.9296 13.2438 27.1484 12.5942 26.1583 12.4654C25.7405 12.411 25.3113 12.474 24.9736 12.7344C24.6102 13.012 24.3812 13.4469 24.2239 13.8647C24.0522 14.3197 23.9377 14.8319 24.0207 15.3184C24.0979 15.7734 24.3755 16.1225 24.6874 16.443C25.0022 16.7664 25.3399 17.0869 25.5001 17.5218C25.6604 17.9568 25.6031 18.4204 25.4658 18.8525C25.317 19.3218 25.0938 19.7653 24.9736 20.246C24.8391 20.784 24.8362 21.3478 24.9564 21.8886C25.0337 22.232 25.1939 22.8472 25.5717 22.9932C25.9093 23.1219 26.0753 22.6212 26.1526 22.3922C26.3071 21.9372 26.4072 21.4565 26.6734 21.0501C26.9481 20.6266 27.3745 20.3462 27.7865 20.0715C28.2072 19.791 28.6221 19.4963 28.9483 19.1014C29.2116 18.7866 29.3976 18.4232 29.6322 18.0884C29.864 17.7565 30.1817 17.4703 30.4335 17.1527C30.6882 16.8293 30.9514 16.4859 31.1088 16.1025C31.2233 15.822 31.2576 15.5187 31.0516 15.2726C30.8169 14.9922 30.4335 14.8405 30.1187 14.6745L30.1158 14.6688ZM34.9519 9.64102C34.8403 9.80413 34.7373 9.97582 34.6314 10.1447C34.3338 10.6254 34.0706 11.212 34.1163 11.7929C34.1621 12.3881 34.806 12.9605 35.2552 13.2981C35.4269 13.4269 35.6187 13.5127 35.8075 13.6072C35.7245 12.2164 35.4269 10.8858 34.9519 9.64102ZM25.7605 2.1122C26.3987 2.34685 27.1398 2.16371 27.7951 2.38119C28.5677 2.63873 28.3445 3.30834 28.5219 3.93216C28.7308 4.66473 29.5149 4.61894 30.0844 4.35854C30.3333 4.24408 30.5794 4.11244 30.8141 3.96364C29.3776 2.80756 27.6949 1.93764 25.8607 1.45117C25.5373 1.67438 25.3198 1.94909 25.7634 2.1122H25.7605Z" fill="url(#paint2_linear_295_16672)"/>
<defs>
<linearGradient id="paint0_linear_295_16672" x1="22.1868" y1="28.07" x2="22.1868" y2="0.933594" gradientUnits="userSpaceOnUse">
<stop stop-color="#266B97"/>
<stop offset="0.03" stop-color="#2774A5"/>
<stop offset="0.06" stop-color="#297DB2"/>
<stop offset="0.1" stop-color="#2A80B7"/>
<stop offset="1" stop-color="#82CEEC"/>
</linearGradient>
<linearGradient id="paint1_linear_295_16672" x1="22.1664" y1="3.96977" x2="22.1664" y2="22.7961" gradientUnits="userSpaceOnUse">
<stop stop-color="#79C0E5"/>
<stop offset="1" stop-color="#E4F2F5"/>
</linearGradient>
<linearGradient id="paint2_linear_295_16672" x1="13.0751" y1="14.6602" x2="35.8047" y2="14.6602" gradientUnits="userSpaceOnUse">
<stop offset="0.04" stop-color="#D6DE23"/>
<stop offset="0.51" stop-color="#8BC53F"/>
<stop offset="0.89" stop-color="#37B34A"/>
</linearGradient>
</defs>
</svg>
