<svg width="20" height="21" viewBox="0 0 20 21" fill="none" xmlns="http://www.w3.org/2000/svg">
<path d="M18.3337 6.86719V15.2005C18.3337 15.7531 18.1142 16.283 17.7235 16.6737C17.3328 17.0644 16.8029 17.2839 16.2503 17.2839H3.75033C3.19779 17.2839 2.66789 17.0644 2.27719 16.6737C1.88649 16.283 1.66699 15.7531 1.66699 15.2005V6.86719" stroke="#3E8C55" stroke-width="1.4" stroke-linecap="round" stroke-linejoin="round"/>
<path d="M18.3337 6.86751C18.3337 6.31498 18.1142 5.78507 17.7235 5.39437C17.3328 5.00367 16.8029 4.78418 16.2503 4.78418H3.75033C3.19779 4.78418 2.66789 5.00367 2.27719 5.39437C1.88649 5.78507 1.66699 6.31498 1.66699 6.86751L8.89616 11.3814C9.22727 11.5883 9.60987 11.6981 10.0003 11.6981C10.3908 11.6981 10.7734 11.5883 11.1045 11.3814L18.3337 6.86751Z" stroke="#3E8C55" stroke-width="1.4" stroke-linecap="round" stroke-linejoin="round"/>
</svg>
