<svg width="114" height="44" viewBox="0 0 114 44" fill="none" xmlns="http://www.w3.org/2000/svg">
<path d="M47.1549 17.7834C47.1549 13.595 43.761 10.2012 39.5726 10.2012H24.4098V28.3975H15.3108C14.4738 28.3975 13.794 27.7177 13.794 26.8807C13.794 26.0438 14.4738 25.3639 15.3108 25.3639H18.3426V26.8807L22.8913 22.3321L18.3426 17.7834V19.3002H15.3108C14.4738 19.3002 13.794 18.6204 13.794 17.7834C13.794 16.9465 14.4738 16.2666 15.3108 16.2666H21.3762V10.2012H15.3108C11.1223 10.2012 7.72852 13.595 7.72852 17.7834C7.72852 19.4909 8.2918 21.066 9.24356 22.3321C8.2918 23.5999 7.72852 25.1732 7.72852 26.8807C7.72852 31.0692 11.1223 34.463 15.3108 34.463H30.4735V16.2666H39.5708C40.4078 16.2666 41.0877 16.9465 41.0877 17.7834C41.0877 18.6204 40.4078 19.3002 39.5708 19.3002H36.5408V17.7834L31.9921 22.3321L36.5408 26.8807V25.3639H39.5726C40.4096 25.3639 41.0894 26.0438 41.0894 26.8807C41.0894 27.7177 40.4096 28.3975 39.5726 28.3975H33.5071V34.463H39.5726C43.761 34.463 47.1549 31.0692 47.1549 26.8807C47.1549 25.1732 46.5916 23.5982 45.6398 22.3321C46.5916 21.066 47.1549 19.4909 47.1549 17.7834Z" fill="#177533"/>
<path d="M28.9588 7.16995H25.9252L24.4102 1.10449H30.4756L28.9588 7.16995Z" fill="#177533"/>
<path d="M25.9252 37.4971H28.9588L30.4756 43.5625H24.4102L25.9252 37.4971Z" fill="#177533"/>
<path d="M48.6709 23.8494V20.8176L54.7346 19.3008V25.3662L48.6709 23.8494Z" fill="#177533"/>
<path d="M6.21292 20.8176V23.8494L0.147461 25.3662V19.3008L6.21292 20.8176Z" fill="#177533"/>
<path d="M41.3799 38.4169L43.5235 36.2715L48.8862 39.4887L44.5971 43.7778L41.3799 38.4169Z" fill="#177533"/>
<path d="M13.5026 6.24958L11.359 8.39501L5.99805 5.17775L10.2871 0.888672L13.5026 6.24958Z" fill="#177533"/>
<path d="M43.5235 8.39501L41.3799 6.24958L44.5971 0.888672L48.8862 5.17775L43.5235 8.39501Z" fill="#177533"/>
<path d="M11.359 36.2715L13.5026 38.4169L10.2871 43.7778L5.99805 39.4887L11.359 36.2715Z" fill="#177533"/>
<path d="M57.1182 20.9097V9.9248H61.0647C62.4773 9.9248 63.5527 10.1844 64.2908 10.7017C65.0271 11.2191 65.3961 11.9713 65.3961 12.9584C65.3961 13.527 65.2655 14.0126 65.0041 14.4152C64.7428 14.8178 64.3579 15.1144 63.8493 15.3051C64.4232 15.4552 64.8629 15.7378 65.1701 16.1509C65.4774 16.5641 65.631 17.0674 65.631 17.6607C65.631 18.7378 65.2902 19.5465 64.6086 20.0869C63.927 20.6272 62.917 20.9027 61.5785 20.9133H57.1182V20.9097ZM59.7668 14.5052H61.1477C61.7251 14.4999 62.1383 14.394 62.3855 14.1874C62.6309 13.9808 62.7545 13.6753 62.7545 13.271C62.7545 12.8066 62.6221 12.4728 62.3555 12.268C62.0888 12.0632 61.658 11.9608 61.0647 11.9608H59.7668V14.5052ZM59.7668 16.2392V18.872H61.5026C61.9811 18.872 62.3484 18.7625 62.6044 18.5436C62.8605 18.3246 62.9894 18.0174 62.9894 17.6201C62.9894 16.7054 62.5338 16.2445 61.6244 16.2392H59.7668Z" fill="#177533"/>
<path d="M73.8981 16.2481H69.7327V18.8738H74.6521V20.9115H67.084V9.9248H74.6662V11.9696H69.7327V14.2863H73.8981V16.2481Z" fill="#177533"/>
<path d="M79.4661 16.821L78.3801 18.0129V20.9105H75.7314V9.92559H78.3801V14.7691L79.3001 13.3724L81.6698 9.92383H84.9435L81.2319 14.785L84.9435 20.9123H81.8057L79.4661 16.821Z" fill="#177533"/>
<path d="M91.855 18.8579H88.2264L87.5925 20.9097H84.7637L88.7932 9.9248H91.2829L95.3425 20.9097H92.4978L91.855 18.8579ZM88.8585 16.8131H91.2194L90.0345 13.0026L88.8585 16.8131Z" fill="#177533"/>
<path d="M101.807 17.9898C101.807 17.6031 101.669 17.3011 101.395 17.084C101.121 16.8685 100.639 16.6443 99.9508 16.413C99.2621 16.1816 98.6988 15.9574 98.2609 15.742C96.8377 15.0427 96.1261 14.0821 96.1261 12.8602C96.1261 12.251 96.3027 11.7142 96.6576 11.2498C97.0125 10.7854 97.514 10.4217 98.162 10.1639C98.8101 9.90429 99.5394 9.77539 100.35 9.77539C101.139 9.77539 101.847 9.91665 102.474 10.1974C103.101 10.4799 103.587 10.8808 103.934 11.4017C104.28 11.9226 104.455 12.5176 104.455 13.1851H101.815C101.815 12.7366 101.678 12.3905 101.404 12.1433C101.13 11.8979 100.76 11.7743 100.292 11.7743C99.8184 11.7743 99.4458 11.8784 99.1721 12.0868C98.8984 12.2952 98.7606 12.5618 98.7606 12.8832C98.7606 13.1657 98.9107 13.42 99.2127 13.6495C99.5146 13.8791 100.044 14.1157 100.805 14.3594C101.565 14.603 102.188 14.8661 102.677 15.1469C103.864 15.8303 104.457 16.7749 104.457 17.9757C104.457 18.9363 104.095 19.6903 103.371 20.2394C102.647 20.7886 101.653 21.0623 100.39 21.0623C99.5005 21.0623 98.6935 20.9033 97.9731 20.5837C97.2509 20.2641 96.7088 19.8262 96.3433 19.2718C95.9778 18.7155 95.7959 18.0763 95.7959 17.3524H98.4516C98.4516 17.9404 98.6035 18.3747 98.9072 18.6537C99.2109 18.9327 99.7053 19.0722 100.39 19.0722C100.828 19.0722 101.174 18.9786 101.429 18.7897C101.679 18.599 101.807 18.3324 101.807 17.9898Z" fill="#177533"/>
<path d="M57.1182 34.8892V23.9043H60.8828C62.1259 23.9043 63.0706 24.1533 63.7204 24.6512C64.3685 25.1492 64.6934 25.8908 64.6934 26.8761C64.6934 27.3794 64.5574 27.8314 64.2855 28.234C64.0135 28.6366 63.6162 28.9474 63.0936 29.1699C63.6869 29.3305 64.146 29.6343 64.4709 30.0792C64.7958 30.5242 64.9582 31.0592 64.9582 31.6826C64.9582 32.7138 64.628 33.5066 63.9659 34.0593C63.3037 34.612 62.3572 34.8892 61.1247 34.8892H57.1182ZM59.027 28.5289H60.8987C61.492 28.5289 61.9564 28.3947 62.2901 28.1245C62.6239 27.8561 62.7916 27.4747 62.7916 26.9821C62.7916 26.4382 62.6362 26.0462 62.3272 25.8043C62.0182 25.5624 61.5361 25.4423 60.8828 25.4423H59.027V28.5289ZM59.027 29.9327V33.3653H61.1477C61.7463 33.3653 62.2142 33.217 62.5515 32.9204C62.8887 32.6237 63.0565 32.2105 63.0565 31.6826C63.0565 30.5401 62.472 29.9574 61.3066 29.9327H59.027Z" fill="#177533"/>
<path d="M73.2856 29.9856H68.774V33.3653H74.0484V34.8892H66.8652V23.9043H73.9955V25.4441H68.774V28.4777H73.2856V29.9856Z" fill="#177533"/>
<path d="M79.6391 30.6637H77.5113V34.8892H75.6025V23.9043H79.4661C80.7339 23.9043 81.7121 24.1886 82.4008 24.7572C83.0895 25.3257 83.4338 26.1486 83.4338 27.2257C83.4338 27.9603 83.2572 28.5766 82.9023 29.0727C82.5474 29.5689 82.0529 29.9503 81.419 30.217L83.8858 34.7921V34.891H81.841L79.6391 30.6637ZM77.5113 29.1257H79.4731C80.1176 29.1257 80.6191 28.9633 80.9829 28.6384C81.3449 28.3135 81.5267 27.8702 81.5267 27.307C81.5267 26.7189 81.359 26.2634 81.0253 25.942C80.6915 25.6206 80.1918 25.4547 79.5279 25.4441H77.5131V29.1257H77.5113Z" fill="#177533"/>
<path d="M88.3988 30.1448L87.1539 31.4656V34.8912H85.2451V23.9062H87.1539V29.0588L88.2099 27.7539L91.4236 23.9062H93.7332L89.6507 28.7727L93.9663 34.8912H91.7026L88.3988 30.1448Z" fill="#177533"/>
<path d="M101.133 32.3326H96.8776L95.9877 34.8912H94.0029L98.1525 23.9062H99.8653L104.022 34.8912H102.032L101.133 32.3326ZM97.4144 30.7928H100.598L99.0054 26.2353L97.4144 30.7928Z" fill="#177533"/>
<path d="M113.991 34.8892H112.089V30.0157H107.176V34.8892H105.268V23.9043H107.176V28.4759H112.089V23.9043H113.991V34.8892Z" fill="#177533"/>
</svg>
