<svg width="107" height="41" viewBox="0 0 107 41" fill="none" xmlns="http://www.w3.org/2000/svg">
<g clip-path="url(#clip0_168_1514)">
<path d="M43.8409 16.175C43.8409 12.2687 40.6756 9.10352 36.7694 9.10352H22.628V26.0742H14.1418C13.3612 26.0742 12.7272 25.4401 12.7272 24.6595C12.7272 23.8789 13.3612 23.2449 14.1418 23.2449H16.9694V24.6595L21.2117 20.4173L16.9694 16.175V17.5897H14.1418C13.3612 17.5897 12.7272 16.9556 12.7272 16.175C12.7272 15.3944 13.3612 14.7604 14.1418 14.7604H19.7987V9.10352H14.1418C10.2355 9.10352 7.07031 12.2687 7.07031 16.175C7.07031 17.7675 7.59565 19.2365 8.4833 20.4173C7.59565 21.5997 7.07031 23.067 7.07031 24.6595C7.07031 28.5658 10.2355 31.731 14.1418 31.731H28.2832V14.7604H36.7677C37.5483 14.7604 38.1823 15.3944 38.1823 16.175C38.1823 16.9556 37.5483 17.5897 36.7677 17.5897H33.9417V16.175L29.6995 20.4173L33.9417 24.6595V23.2449H36.7694C37.55 23.2449 38.184 23.8789 38.184 24.6595C38.184 25.4401 37.55 26.0742 36.7694 26.0742H31.1125V31.731H36.7694C40.6756 31.731 43.8409 28.5658 43.8409 24.6595C43.8409 23.067 43.3155 21.5981 42.4279 20.4173C43.3155 19.2365 43.8409 17.7675 43.8409 16.175Z" fill="#177533"/>
<path d="M26.8702 6.27602H24.0409L22.6279 0.619141H28.2848L26.8702 6.27602Z" fill="#FFD333"/>
<path d="M24.0409 34.5605H26.8702L28.2848 40.2174H22.6279L24.0409 34.5605Z" fill="#FFD333"/>
<path d="M45.2549 21.8321V19.0045L50.9101 17.5898V23.2467L45.2549 21.8321Z" fill="#FFD333"/>
<path d="M5.65688 19.0045V21.8321L0 23.2467V17.5898L5.65688 19.0045Z" fill="#FFD333"/>
<path d="M38.4551 35.4179L40.4543 33.417L45.4558 36.4175L41.4556 40.4177L38.4551 35.4179Z" fill="#FFD333"/>
<path d="M12.4551 5.41776L10.4558 7.41867L5.45605 4.41813L9.45622 0.417969L12.4551 5.41776Z" fill="#FFD333"/>
<path d="M40.4543 7.41867L38.4551 5.41776L41.4556 0.417969L45.4558 4.41813L40.4543 7.41867Z" fill="#FFD333"/>
<path d="M10.4558 33.417L12.4551 35.4179L9.45622 40.4177L5.45605 36.4175L10.4558 33.417Z" fill="#FFD333"/>
<path d="M53.1338 19.0907V8.8457H56.8145C58.1319 8.8457 59.1349 9.08779 59.8232 9.57031C60.51 10.0528 60.8542 10.7544 60.8542 11.675C60.8542 12.2052 60.7323 12.6581 60.4886 13.0336C60.2448 13.4091 59.8858 13.6858 59.4115 13.8636C59.9467 14.0036 60.3568 14.2671 60.6434 14.6524C60.9299 15.0378 61.0732 15.5072 61.0732 16.0605C61.0732 17.0651 60.7553 17.8193 60.1197 18.3232C59.484 18.8272 58.542 19.0841 57.2937 19.094H53.1338V19.0907ZM55.604 13.1176H56.8919C57.4304 13.1127 57.8157 13.0138 58.0463 12.8212C58.2752 12.6285 58.3905 12.3436 58.3905 11.9665C58.3905 11.5333 58.267 11.2221 58.0183 11.0311C57.7696 10.84 57.3678 10.7445 56.8145 10.7445H55.604V13.1176ZM55.604 14.7348V17.1902H57.2229C57.6692 17.1902 58.0117 17.0881 58.2505 16.8839C58.4893 16.6797 58.6095 16.3932 58.6095 16.0226C58.6095 15.1696 58.1846 14.7397 57.3365 14.7348H55.604Z" fill="#177533"/>
<path d="M68.7839 14.743H64.899V17.1919H69.4871V19.0923H62.4287V8.8457H69.5002V10.7527H64.899V12.9134H68.7839V14.743Z" fill="#177533"/>
<path d="M73.9762 15.2773L72.9634 16.3889V19.0913H70.4932V8.84637H72.9634V13.3636L73.8214 12.061L76.0315 8.84473H79.0847L75.6231 13.3785L79.0847 19.093H76.1583L73.9762 15.2773Z" fill="#177533"/>
<path d="M85.5307 17.177H82.1464L81.5552 19.0907H78.917L82.6751 8.8457H84.9971L88.7832 19.0907H86.1301L85.5307 17.177ZM82.736 15.27H84.9378L83.8328 11.7161L82.736 15.27Z" fill="#177533"/>
<path d="M94.8119 16.3671C94.8119 16.0065 94.6834 15.7249 94.4282 15.5223C94.1729 15.3214 93.7233 15.1122 93.0811 14.8965C92.4388 14.6808 91.9135 14.4716 91.505 14.2707C90.1777 13.6186 89.514 12.7227 89.514 11.5831C89.514 11.0149 89.6787 10.5143 90.0097 10.0812C90.3407 9.64804 90.8084 9.3088 91.4128 9.06836C92.0172 8.82627 92.6973 8.70605 93.4532 8.70605C94.1894 8.70605 94.8498 8.8378 95.4344 9.09965C96.019 9.36314 96.4719 9.73697 96.7963 10.2228C97.1191 10.7086 97.2821 11.2636 97.2821 11.8861H94.8201C94.8201 11.4678 94.6917 11.145 94.4364 10.9145C94.1811 10.6856 93.8353 10.5703 93.3989 10.5703C92.9576 10.5703 92.6101 10.6674 92.3548 10.8618C92.0995 11.0561 91.9711 11.3048 91.9711 11.6045C91.9711 11.868 92.1111 12.1051 92.3927 12.3192C92.6743 12.5333 93.1683 12.754 93.8781 12.9812C94.5863 13.2085 95.1676 13.4539 95.6238 13.7157C96.7305 14.3531 97.2838 15.2341 97.2838 16.354C97.2838 17.2498 96.9462 17.953 96.271 18.4652C95.5958 18.9774 94.6686 19.2326 93.4911 19.2326C92.6611 19.2326 91.9085 19.0844 91.2366 18.7863C90.5631 18.4883 90.0575 18.0798 89.7166 17.5627C89.3757 17.044 89.2061 16.4478 89.2061 15.7726H91.6829C91.6829 16.321 91.8245 16.7261 92.1078 16.9863C92.391 17.2465 92.8522 17.3766 93.4911 17.3766C93.8995 17.3766 94.2223 17.2894 94.4595 17.1132C94.6933 16.9353 94.8119 16.6866 94.8119 16.3671Z" fill="#177533"/>
<path d="M53.1338 32.1288V21.8838H56.6448C57.8042 21.8838 58.6853 22.116 59.2913 22.5804C59.8957 23.0448 60.1987 23.7365 60.1987 24.6554C60.1987 25.1248 60.0719 25.5464 59.8183 25.9218C59.5647 26.2973 59.1941 26.5872 58.7067 26.7947C59.26 26.9445 59.6882 27.2278 59.9912 27.6428C60.2942 28.0578 60.4457 28.5568 60.4457 29.1381C60.4457 30.0999 60.1378 30.8393 59.5202 31.3547C58.9027 31.8702 58.0199 32.1288 56.8705 32.1288H53.1338ZM54.914 26.1969H56.6597C57.213 26.1969 57.6461 26.0717 57.9574 25.8197C58.2686 25.5694 58.4251 25.2137 58.4251 24.7542C58.4251 24.247 58.2802 23.8814 57.992 23.6558C57.7038 23.4302 57.2542 23.3182 56.6448 23.3182H54.914V26.1969ZM54.914 27.5061V30.7075H56.8919C57.4501 30.7075 57.8866 30.5692 58.2011 30.2925C58.5156 30.0159 58.6721 29.6305 58.6721 29.1381C58.6721 28.0726 58.127 27.5291 57.0401 27.5061H54.914Z" fill="#FFD333"/>
<path d="M68.2125 27.5555H64.0048V30.7075H68.9239V32.1288H62.2246V21.8838H68.8745V23.3198H64.0048V26.1491H68.2125V27.5555Z" fill="#FFD333"/>
<path d="M74.1377 28.1879H72.1533V32.1288H70.373V21.8838H73.9763C75.1588 21.8838 76.0711 22.1489 76.7134 22.6792C77.3556 23.2095 77.6768 23.9769 77.6768 24.9815C77.6768 25.6666 77.5121 26.2413 77.1811 26.7041C76.8501 27.1668 76.3889 27.5226 75.7977 27.7712L78.0984 32.0382V32.1304H76.1913L74.1377 28.1879ZM72.1533 26.7535H73.9829C74.584 26.7535 75.0517 26.602 75.391 26.299C75.7286 25.9959 75.8982 25.5826 75.8982 25.0572C75.8982 24.5088 75.7417 24.084 75.4305 23.7842C75.1192 23.4845 74.6532 23.3297 74.034 23.3198H72.1549V26.7535H72.1533Z" fill="#FFD333"/>
<path d="M82.3075 27.704L81.1464 28.9358V32.1307H79.3662V21.8857H81.1464V26.6912L82.1312 25.4742L85.1285 21.8857H87.2826L83.4751 26.4244L87.4999 32.1307H85.3887L82.3075 27.704Z" fill="#FFD333"/>
<path d="M94.1841 29.7444H90.2152L89.3852 32.1307H87.5342L91.4042 21.8857H93.0017L96.8783 32.1307H95.0223L94.1841 29.7444ZM90.7159 28.3084H93.6851L92.1997 24.0579L90.7159 28.3084Z" fill="#FFD333"/>
<path d="M106.175 32.1288H104.402V27.5835H99.8203V32.1288H98.04V21.8838H99.8203V26.1474H104.402V21.8838H106.175V32.1288Z" fill="#FFD333"/>
</g>
<defs>
<clipPath id="clip0_168_1514">
<rect width="106.175" height="40" fill="white" transform="translate(0 0.417969)"/>
</clipPath>
</defs>
</svg>
