<svg width="20" height="21" viewBox="0 0 20 21" fill="none" xmlns="http://www.w3.org/2000/svg">
<path d="M16.8612 9.37452C16.8612 14.7534 11.352 18.0671 10.2071 18.6983C10.1437 18.7333 10.0724 18.7516 9.99998 18.7516C9.92755 18.7516 9.8563 18.7333 9.79287 18.6983C8.64712 18.0671 3.13965 14.7534 3.13965 9.37452C3.13965 5.08654 5.71243 2.08496 10.0004 2.08496C14.2884 2.08496 16.8612 5.08654 16.8612 9.37452Z" stroke="#3E8C55" stroke-width="1.4" stroke-linecap="round" stroke-linejoin="round"/>
<path d="M6.57031 8.94601C6.57031 9.8558 6.93173 10.7283 7.57505 11.3717C8.21837 12.015 9.0909 12.3764 10.0007 12.3764C10.9105 12.3764 11.783 12.015 12.4263 11.3717C13.0697 10.7283 13.4311 9.8558 13.4311 8.94601C13.4311 8.03621 13.0697 7.16368 12.4263 6.52036C11.783 5.87704 10.9105 5.51563 10.0007 5.51562C9.0909 5.51563 8.21837 5.87704 7.57505 6.52036C6.93173 7.16368 6.57031 8.03621 6.57031 8.94601V8.94601Z" stroke="#3E8C55" stroke-width="1.4" stroke-linecap="round" stroke-linejoin="round"/>
</svg>
