<svg width="20" height="19" viewBox="0 0 20 19" fill="none" xmlns="http://www.w3.org/2000/svg">
<path d="M12.2519 17.3031L12.261 17.3095C13.0481 17.8106 13.9825 18.0282 14.91 17.9263C15.8374 17.8245 16.7024 17.4093 17.3619 16.7493L17.9349 16.1763C18.0618 16.0494 18.1626 15.8988 18.2313 15.7329C18.3 15.5671 18.3354 15.3894 18.3354 15.2099C18.3354 15.0304 18.3 14.8526 18.2313 14.6868C18.1626 14.521 18.0618 14.3703 17.9349 14.2434L15.5183 11.8287C15.3914 11.7017 15.2408 11.601 15.0749 11.5323C14.9091 11.4636 14.7314 11.4282 14.5519 11.4282C14.3724 11.4282 14.1946 11.4636 14.0288 11.5323C13.863 11.601 13.7123 11.7017 13.5854 11.8287C13.3292 12.0848 12.9817 12.2287 12.6194 12.2287C12.2571 12.2287 11.9097 12.0848 11.6535 11.8287L7.7895 7.96383C7.53336 7.7076 7.38946 7.36014 7.38946 6.99784C7.38946 6.63554 7.53336 6.28807 7.7895 6.03185C7.91647 5.90496 8.01719 5.7543 8.08591 5.58848C8.15463 5.42265 8.19 5.24491 8.19 5.06541C8.19 4.8859 8.15463 4.70816 8.08591 4.54234C8.01719 4.37651 7.91647 4.22585 7.7895 4.09896L5.37385 1.68422C5.11763 1.42807 4.77016 1.28418 4.40786 1.28418C4.04556 1.28418 3.69809 1.42807 3.44187 1.68422L2.86802 2.25716C2.20817 2.9168 1.79311 3.78182 1.69142 4.70928C1.58973 5.63674 1.80749 6.57115 2.30874 7.35809L2.3142 7.3672C4.96139 11.2838 8.33483 14.6566 12.2519 17.3031V17.3031Z" stroke="#3E8C55" stroke-width="1.4" stroke-linecap="round" stroke-linejoin="round"/>
</svg>
