<svg width="44" height="44" viewBox="0 0 44 44" fill="none" xmlns="http://www.w3.org/2000/svg">
<rect x="0.725586" y="13.2676" width="42.9659" height="21.4445" rx="3.61818" fill="#EFF0B3"/>
<path d="M22.4379 0.400391C19.4239 0.400391 16.9688 2.85259 16.9688 5.86663V7.42339C16.9688 7.83014 17.2994 8.16081 17.7091 8.16081C18.1188 8.16081 18.4465 7.83014 18.4465 7.42339V5.86663C18.4465 3.66609 20.2374 1.87522 22.4379 1.87522C24.6385 1.87522 26.4293 3.66609 26.4293 5.86663V7.42339C26.4293 7.83014 26.76 8.16081 27.1667 8.16081C27.5735 8.16081 27.9041 7.83014 27.9041 7.42339V5.86663C27.9041 2.85259 25.452 0.400391 22.435 0.400391H22.4379Z" fill="url(#paint0_linear_295_16682)"/>
<path d="M34.0432 30.3715C34.1105 31.2991 33.4024 32.0599 32.4718 32.0599H12.4065C11.4731 32.0599 10.7678 31.2991 10.8322 30.3715L12.3597 9.1152C12.4241 8.18466 13.2434 7.42676 14.174 7.42676H30.7014C31.632 7.42676 32.4484 8.18758 32.5157 9.1152L34.0403 30.3715H34.0432Z" fill="url(#paint1_linear_295_16682)"/>
<path d="M30.7053 7.42676H14.1778C13.2473 7.42676 12.4279 8.18758 12.3635 9.1152L11.7402 17.7974C16.6007 19.9277 22.3596 21.1597 28.5281 21.1597C30.1727 21.1597 31.788 21.066 33.3652 20.8963L32.5195 9.1152C32.4522 8.18466 31.6358 7.42676 30.7053 7.42676Z" fill="url(#paint2_linear_295_16682)"/>
<path d="M30.704 7.99121H14.1765C13.5415 7.99121 12.9709 8.52379 12.927 9.15293L12.2949 17.9434C12.4763 18.0253 12.6607 18.1014 12.8451 18.1804L13.4888 9.1939C13.5122 8.86031 13.84 8.5589 14.1736 8.5589H30.701C31.0346 8.5589 31.3624 8.86323 31.3858 9.19683L32.2285 20.9604C32.4158 20.9428 32.6031 20.9194 32.7904 20.8989L31.9476 9.15586C31.9037 8.52379 31.3302 7.99121 30.6981 7.99121H30.704Z" fill="#EFF0B3"/>
<path d="M26.1693 15.2594L27.1964 14.6478L25.5928 17.498H22.3856L23.4244 16.901L22.6783 15.5725C23.0499 14.9112 23.4186 14.2615 23.4186 14.2615C23.641 13.8577 24.0565 13.6031 24.5101 13.6031C24.9607 13.6031 25.3792 13.8548 25.6074 14.2557C25.7684 14.5395 26.1722 15.2623 26.1722 15.2623L26.1693 15.2594ZM28.9843 21.4104C29.2096 21.0095 29.2097 20.5091 28.9785 20.1082C28.9785 20.1082 28.1855 18.6948 27.5534 17.574L24.8027 19.204L26.4063 22.0571H27.8811C28.3347 22.06 28.7561 21.8142 28.9814 21.4104H28.9843ZM18.1075 25.0506C18.3328 25.4515 18.7542 25.7002 19.2077 25.6973H22.0579V22.4345H18.8507C18.4791 23.0959 18.1133 23.7455 18.1133 23.7455C17.8821 24.1464 17.8821 24.6468 18.1075 25.0477V25.0506ZM27.8402 22.3994C28.4196 22.4053 28.958 22.0892 29.2506 21.5713L27.2695 25.0945C27.0618 25.4603 26.6872 25.6651 26.301 25.6622H24.7003V26.8795L23.0996 24.0294L24.7032 21.1792V22.3994H27.8402ZM19.4155 20.7432L20.4455 21.3548L18.8419 18.5046H15.6348L16.6648 19.1103L15.866 20.5325C15.6699 20.8749 15.6553 21.3109 15.8601 21.6766L17.8412 25.1999C17.5515 24.6848 17.5544 24.044 17.847 23.5319L19.4155 20.7402V20.7432ZM17.929 16.8074L20.6884 18.4431C20.6884 18.4431 22.7631 14.7531 23.1406 14.0859C23.4303 13.5739 23.9424 13.2637 24.5218 13.2637H20.5597C20.147 13.2637 19.7988 13.5036 19.5969 13.8401C19.2487 14.4225 17.929 16.8074 17.929 16.8074Z" fill="url(#paint3_linear_295_16682)"/>
<path d="M18.8351 18.5144L19.8505 20.314C18.6888 20.0828 17.5593 19.8019 16.4561 19.4829L16.6609 19.1201L15.6309 18.5114H18.838L18.8351 18.5144ZM25.5918 17.5019L27.1954 14.6517L26.1683 15.2633C26.1683 15.2633 25.7645 14.5434 25.6035 14.2567C25.3753 13.8558 24.9568 13.6041 24.5062 13.6041C24.0526 13.6041 23.6371 13.8587 23.4147 14.2625C23.4147 14.2625 23.046 14.9121 22.6743 15.5735L23.4205 16.902L22.3817 17.4989H25.5889L25.5918 17.5019ZM24.5179 13.2705H20.5557C20.1431 13.2705 19.7949 13.5105 19.593 13.847C19.2448 14.4293 17.925 16.8142 17.925 16.8142L20.6845 18.45C20.6845 18.45 22.7592 14.76 23.1367 14.0928C23.4264 13.5807 23.9385 13.2705 24.5179 13.2705ZM28.9775 20.1121C28.9775 20.1121 28.1845 18.6987 27.5524 17.578L24.8017 19.2079L25.8523 21.0748C26.736 21.1275 27.6256 21.1597 28.5298 21.1597C28.7171 21.1597 28.9043 21.1538 29.0916 21.1509C29.197 20.8056 29.1618 20.4281 28.9804 20.1121H28.9775Z" fill="url(#paint4_linear_295_16682)"/>
<defs>
<linearGradient id="paint0_linear_295_16682" x1="22.4379" y1="8.16081" x2="22.4379" y2="0.400391" gradientUnits="userSpaceOnUse">
<stop stop-color="#D28B56"/>
<stop offset="1" stop-color="#8B4900"/>
</linearGradient>
<linearGradient id="paint1_linear_295_16682" x1="10.8293" y1="19.7433" x2="34.0462" y2="19.7433" gradientUnits="userSpaceOnUse">
<stop offset="0.04" stop-color="#D6DE23"/>
<stop offset="0.51" stop-color="#8BC53F"/>
<stop offset="0.89" stop-color="#37B34A"/>
</linearGradient>
<linearGradient id="paint2_linear_295_16682" x1="11.7373" y1="14.2917" x2="33.3652" y2="14.2917" gradientUnits="userSpaceOnUse">
<stop offset="0.04" stop-color="#D6DE23"/>
<stop offset="0.51" stop-color="#8BC53F"/>
<stop offset="0.89" stop-color="#37B34A"/>
</linearGradient>
<linearGradient id="paint3_linear_295_16682" x1="15.6318" y1="20.076" x2="29.2477" y2="20.076" gradientUnits="userSpaceOnUse">
<stop stop-color="white"/>
<stop offset="0.5" stop-color="#F3F3F3"/>
<stop offset="1" stop-color="white"/>
</linearGradient>
<linearGradient id="paint4_linear_295_16682" x1="22.3876" y1="21.1597" x2="22.3876" y2="13.2705" gradientUnits="userSpaceOnUse">
<stop stop-color="white"/>
<stop offset="0.5" stop-color="#F3F3F3"/>
<stop offset="1" stop-color="white"/>
</linearGradient>
</defs>
</svg>
