<svg width="153" height="116" viewBox="0 0 153 116" fill="none" xmlns="http://www.w3.org/2000/svg">
<path d="M11.6419 73.9634C10.6233 78.2845 10.752 82.7342 12.0279 87.0553C13.261 91.2048 15.3411 95.2256 18.0645 98.8605L20.1554 101.434C23.1791 104.865 26.8032 107.856 30.824 110.151C37.0537 113.711 44.1518 115.512 51.9362 115.512C53.2336 115.512 54.5631 115.459 55.882 115.351C61.94 114.88 67.3655 113.636 72.1691 111.684L77.1978 109.24C78.774 108.328 80.2858 107.342 81.6905 106.248C85.4861 103.257 88.6278 99.2465 91.0188 94.3357C91.5228 93.3063 91.9946 92.2556 92.4663 91.194C93.6887 88.4599 94.8467 85.8651 96.4765 84.1281C97.4844 83.0559 98.5566 82.3911 99.2857 82.3911C99.4358 82.3911 99.5859 82.4232 99.7575 82.4769C101.076 82.9379 102.588 84.2675 104.196 85.6721C105.312 86.6478 106.47 87.6557 107.778 88.5993C113.278 92.5236 120.258 94.7753 126.928 94.7753C129.233 94.7753 131.485 94.5072 133.629 93.9926C138.486 92.8131 142.722 90.0682 145.885 86.0581C149.176 81.8764 151.235 77.7591 152.179 73.4594C153.723 66.3827 151.889 58.9308 147.15 53.0121C145.424 50.8569 143.461 49.077 141.306 47.726C139.912 46.8468 137.746 45.678 135.087 45.678C133.618 45.678 132.182 46.0533 130.927 46.7503C130.166 47.1792 129.49 47.7153 128.922 48.3264C129.941 43.941 130.927 39.3948 130.638 34.3768C130.316 28.9084 128.675 23.4508 125.877 18.5829C120.119 8.54685 110.04 1.90976 98.8997 0.816091C97.7739 0.708869 96.6266 0.644531 95.49 0.644531C87.3411 0.644531 79.2672 3.5181 72.8982 8.53612C71.6008 7.57111 70.2176 6.72406 68.7808 5.99495C64.1917 3.67894 58.9164 2.44588 53.4909 2.44588C51.4858 2.44588 49.4379 2.61743 47.4221 2.9391C34.5125 5.05138 23.4364 14.2618 17.5177 27.7182C14.7085 28.0721 11.985 29.155 9.69045 30.8491C5.90549 33.6369 3.06409 37.8294 1.48792 42.976C-1.31059 52.09 0.790975 62.2868 6.97772 69.5994C8.35017 71.2292 9.91562 72.6767 11.6312 73.9527L11.6419 73.9634ZM132.396 61.6542C132.589 61.7829 133.018 62.5442 132.975 63.4663C132.954 63.7772 132.364 64.2168 131.613 64.3026C131.452 64.3241 131.302 64.3348 131.152 64.3348C129.447 64.3348 128.59 63.1339 128.225 62.4048C127.56 61.0752 127.271 59.3489 127.367 57.1723C128.257 59.2846 130.112 60.968 132.407 61.6542H132.396Z" fill="#EDE0DD"/>
<path d="M85.6563 36.5635C82.504 38.858 79.7913 41.7101 78.8799 45.6452C77.7112 50.6954 80.6705 55.5204 85.2275 57.6434C89.7094 59.7343 95.5316 59.3483 99.3165 55.9922C102.833 52.872 104.088 47.5431 101.343 43.5008C100.003 41.5171 97.6974 40.0482 95.242 40.2305C94.8882 40.2519 94.5451 40.327 94.2234 40.4342C96.132 40.1232 98.0513 41.174 99.1664 42.7609C100.528 44.6802 100.668 47.2321 99.7561 49.3658C98.7911 51.639 96.7646 53.4618 94.3735 54.1158C91.8967 54.802 89.2376 54.1373 87.1682 52.6576C82.8042 49.5267 81.7427 43.9511 83.9622 39.1797C84.4126 38.204 84.9916 37.3247 85.6456 36.5527L85.6563 36.5635Z" fill="#83CE8D"/>
<path d="M66.5062 51.2853C61.1772 53.5906 55.1299 53.7085 49.876 51.1245C45.9516 49.1837 42.7778 45.6132 41.8879 41.3779C41.7485 43.2972 41.9844 45.2594 42.5312 47.1251C44.3969 53.4405 49.8974 57.9331 55.7625 60.4636C59.1615 61.9325 62.8606 62.8653 66.5813 62.6402C68.2539 62.533 69.9159 62.1791 71.4813 61.568C72.7251 61.0747 73.7652 60.3671 74.8267 59.6272C73.2827 58.2226 71.9638 56.5821 71.1061 54.6628C70.4949 53.2904 70.1411 51.8107 70.066 50.2988C70.0446 49.9665 70.066 49.6233 70.1089 49.2802C68.983 50.063 67.7714 50.7385 66.5062 51.2853Z" fill="#074C36"/>
<path d="M44.4615 27.7711C36.3233 28.8219 30.3725 35.727 27.0593 42.7715C23.9177 49.4622 22.9098 57.2573 24.9792 64.3983C27.4774 62.2753 30.5655 60.8064 33.7393 60.1416C34.2646 60.0344 34.7793 59.9593 35.294 59.895C34.983 54.1157 34.8651 48.197 36.6664 42.6428C37.8995 38.815 40.119 35.2445 43.2821 32.7784C44.5902 30.4731 46.606 28.6503 49.1579 27.9533C47.6139 27.6424 46.0162 27.5673 44.4508 27.7711H44.4615Z" fill="#048241"/>
<path d="M30.8336 87.2161C34.1683 87.7844 37.5672 87.5593 40.859 86.8516C40.7196 86.8301 40.5909 86.8194 40.4515 86.7872C36.7416 85.9831 33.5893 83.2811 32.5814 79.5712C32.4742 79.1744 32.3991 78.767 32.3562 78.3703C30.973 76.8263 29.9437 74.982 29.4076 72.9448C28.7857 70.5859 28.7535 67.7016 29.6649 65.3105C28.078 66.2434 26.6091 67.3907 25.301 68.6988C24.4432 69.5566 23.6283 70.4251 22.7812 71.2721C22.4167 71.894 22.0736 72.5266 21.7626 73.1807C21.3873 73.9634 21.0549 74.907 20.7869 75.9685C20.4867 77.1801 20.3473 78.4024 20.358 79.6462C20.358 80.622 20.4652 81.5762 20.6475 82.5305C21.5803 83.6671 22.9742 84.4498 24.336 85.1253C26.3732 86.1439 28.582 86.8516 30.8336 87.2269V87.2161Z" fill="#4A6F70"/>
<path d="M72.3076 47.5002C72.3719 47.9291 72.4363 48.358 72.4577 48.819C72.4792 49.4731 72.5435 50.1379 72.64 50.7812C72.8437 52.0893 73.3369 53.3653 74.0017 54.5018C75.2562 56.6677 77.1648 58.3726 79.2556 59.7128C83.5124 62.4577 88.5626 63.8302 93.6127 63.3799C102.319 62.5972 108.742 53.8156 107.316 45.2807C106.608 41.0132 104.099 37.2175 100.078 35.4269C96.4113 33.7971 91.8221 34.0545 88.6912 36.7243C85.8927 39.1154 84.3916 43.1684 85.5174 46.7604C86.6647 50.4274 90.9643 53.1937 94.76 51.907C98.7487 50.556 101.033 44.9054 97.0868 42.0962C95.146 40.7237 92.3153 41.3885 91.5005 43.7474C91.0608 45.0341 91.5005 46.5781 92.9265 46.9963C94.1917 47.3715 95.4891 45.9562 94.7815 44.766C94.6099 44.4658 95.0495 44.2192 95.2425 44.498C95.7357 45.2271 95.65 46.0849 95.146 46.7818C93.9022 48.5295 91.5648 47.5216 90.825 45.849C90.3532 44.7875 90.4604 43.7045 90.9429 42.7717C91.3932 41.5172 92.444 40.445 93.6771 39.9732C96.3362 38.9653 99.3599 40.2734 101.118 42.3428C104.485 46.2993 103.81 52.1215 100.336 55.7563C96.5721 59.7021 90.3961 60.442 85.4853 58.4155C80.4029 56.3139 76.9075 51.0171 78.2585 45.463C79.4379 40.6379 83.255 37.3462 87.3724 34.8908C89.8492 32.9823 93.0445 32.103 96.3362 32.5105C98.9739 32.8429 101.365 33.8615 103.349 35.4055C103.22 35.116 103.091 34.8265 102.952 34.5477C102.319 33.3361 101.547 32.1995 100.636 31.1809C98.7487 29.0579 96.3576 27.4496 93.6663 26.5489C90.8357 25.6053 87.7155 25.4231 84.799 26.0664C82.3758 26.5918 79.8346 27.7605 78.5265 29.8621C78.9232 33.0251 78.6874 36.2633 77.6902 39.2762C76.6287 42.4607 74.7308 45.2592 72.2969 47.4895L72.3076 47.5002Z" fill="#048241"/>
<path d="M49.8877 68.2367C46.1993 63.0043 39.3692 61.7283 33.5363 63.5618C32.5177 63.8835 31.5527 64.3017 30.6091 64.7842C30.2553 65.8135 29.9229 66.8536 29.7835 67.9472C29.569 69.5556 29.6334 71.1961 30.0194 72.7723C30.4375 74.4985 31.2417 76.1069 32.3032 77.5222C32.196 74.0375 34.1367 70.6171 37.6429 69.4805C39.7016 68.8157 42.0605 69.1803 43.7117 70.6064C45.1271 71.8394 45.824 73.8016 45.1271 75.5922C44.5052 77.1791 43.197 78.6695 41.4064 78.7875C39.8088 78.8947 38.1576 77.994 37.8681 76.3428C37.793 75.8924 38.3184 75.678 38.5865 76.0426C39.6587 77.4901 42.0819 77.994 42.9719 76.064C43.6045 74.6915 42.3714 72.7937 41.0848 72.2683C37.6107 70.8423 35.016 74.906 35.4448 77.919C36.2276 83.4731 43.1649 85.3709 47.5503 82.7869C52.5576 79.8275 53.0401 72.6865 49.8985 68.2367H49.8877Z" fill="#F9E7E4"/>
<path d="M105.654 58.1805C110.136 55.4356 113.342 50.8357 115.133 45.9249C117.298 40.0063 117.738 33.2727 115.379 27.3433C113.353 22.2502 109.439 17.9291 104.528 15.4844C94.771 10.6058 82.1294 13.6509 76.6182 22.99C76.7147 23.2045 76.8326 23.4189 76.9184 23.6441C77.6582 25.4347 78.1836 27.3433 78.4731 29.284C79.5989 27.6435 81.4646 26.5498 83.4161 25.9279C86.5255 24.9307 89.9138 24.8986 93.0554 25.7671C96.0576 26.5927 98.7811 28.2654 100.893 30.5492C102.352 32.1254 103.821 34.2162 104.475 36.3928C106.019 37.8725 107.262 39.7167 108.077 41.8076C110.029 46.8256 109.31 52.6049 106.426 57.1083C106.19 57.4835 105.911 57.8266 105.654 58.1805Z" fill="#074C36"/>
<path d="M37.2354 102.151C38.8545 101.937 40.4521 101.465 41.9318 100.768C44.7946 99.4386 47.2286 97.3263 49.0835 94.7744C52.4181 90.196 53.7263 84.5882 53.9407 78.9912C53.2116 81.0177 52.0321 82.8834 50.4452 84.3094C48.1078 86.4003 45.0734 87.2795 42.0175 87.0115C38.0825 88.2552 33.8901 88.5662 29.8049 87.7727C27.2744 87.2795 24.8298 86.3681 22.621 85.0278C22.1385 84.7383 21.538 84.3523 20.9805 83.902C21.5809 86.1322 22.5781 88.266 23.7683 90.2389C26.7812 95.2354 31.0165 99.46 36.1203 102.248C36.4956 102.226 36.8709 102.194 37.2461 102.141L37.2354 102.151Z" fill="#83CE8D"/>
<path d="M34.8971 20.8876C39.9795 17.3814 45.9303 16.1376 51.9133 17.8639C57.0922 19.365 62.6678 22.8712 64.7479 28.0715C66.4956 32.4569 64.9838 39.3513 59.3975 39.8553C57.1994 40.059 54.8298 38.6544 54.4438 36.3598C54.1972 34.8909 55.0121 33.304 56.3202 32.6714C56.1486 32.4998 55.9664 32.339 55.7626 32.1889C55.3659 31.8994 54.937 31.6635 54.4974 31.4597C53.0928 31.2239 51.6238 31.5026 50.4015 32.4784C47.8067 34.5478 47.6352 38.3756 49.8654 40.7667C53.6289 44.7768 60.341 44.423 64.6943 41.6781C69.3906 38.7294 71.5565 32.9609 70.8917 27.5676C70.227 22.1528 66.5814 17.4672 61.9065 14.8295C57.4031 12.2776 52.3101 11.8594 47.3349 12.61C45.941 12.9317 44.5686 13.3498 43.2497 13.8752C37.5133 16.1912 32.8599 20.4373 29.4502 25.5518C31.1014 23.7933 32.9242 22.2064 34.8864 20.8554L34.8971 20.8876Z" fill="#4A6F70"/>
<path d="M65.156 16.3952C69.7987 20.2874 72.3399 26.2382 71.3534 32.2856C70.3777 38.2257 65.9816 43.0829 59.9986 44.1766C57.2322 44.6805 54.305 44.3696 51.8175 43.0186C49.3942 41.6997 47.4535 39.3194 47.743 36.4351C47.9789 34.0012 49.6623 31.728 52.0748 31.1061C52.3321 31.0418 52.6002 30.9989 52.879 30.9668C51.0776 30.6129 49.2977 30.9453 47.8395 32.0926C44.5049 34.7303 43.9366 39.877 45.9631 43.4475C48.3542 47.672 53.3615 49.913 58.0793 49.9452C62.8293 49.9773 67.5149 47.9723 70.8602 44.6162C77.626 37.829 76.8754 26.7958 71.0103 19.6548C67.1718 14.9906 61.5962 12.5459 55.7847 12.0312C59.2158 12.6853 62.4754 14.1328 65.1667 16.3845L65.156 16.3952Z" fill="#83CE8D"/>
<path d="M22.3096 67.2296C22.9529 66.3718 23.6713 65.5677 24.4648 64.8493C23.1781 60.7641 22.8779 56.4323 23.4783 52.1863C24.6042 44.2733 28.6679 36.1458 35.0798 31.2135C38.4037 28.6616 42.5425 27.0104 46.7778 27.1712C47.9465 27.2141 49.0831 27.4178 50.1875 27.7502C50.5949 27.6966 51.0024 27.6537 51.4313 27.6537C53.9296 27.6537 56.385 28.7152 58.197 30.3986C59.8697 31.9534 60.513 34.5482 60.1163 36.7677C59.9769 37.5504 58.9369 37.2394 58.8511 36.5961C58.7224 35.5989 58.315 34.6661 57.6609 33.8941C57.6073 33.8405 57.4143 33.6368 57.3178 33.5081C57.232 33.4545 57.0926 33.3794 57.0819 33.3687C56.9425 33.2722 56.8246 33.165 56.7066 33.0578C56.6423 33.0042 56.5887 32.9505 56.5351 32.8969C55.5808 33.433 54.916 34.4088 54.8517 35.5453C54.7659 37.0143 55.806 38.2902 57.0819 38.9014C59.859 40.231 62.9363 38.1615 64.1586 35.674C66.4746 30.9455 63.6975 25.7988 60.0091 22.7537C56.0418 19.4727 50.745 17.4461 45.5769 17.6713C40.2801 17.9072 35.5194 20.7379 31.713 24.2655C30.0189 25.8309 28.5285 27.568 27.2097 29.4229C26.0302 31.7282 25.0867 34.1407 24.3897 36.5854C24.0895 37.6362 22.9958 37.9471 22.0737 37.5289C18.9964 36.1136 15.5653 37.8077 13.5066 40.1559C9.47505 44.7665 8.821 51.9504 10.751 57.5796C12.4451 62.5225 16.4124 66.6184 21.2159 68.6449C21.5269 68.1624 21.9022 67.7014 22.2989 67.2511L22.3096 67.2296Z" fill="#F9E7E4"/>
<path d="M67.0431 88.4382C65.735 77.9089 58.6476 67.5941 49.0941 62.8763C48.4614 62.5654 47.8074 62.2759 47.1426 62.0078C51.5602 64.549 54.8305 68.9558 54.7983 74.3491C54.7983 75.4428 54.6375 76.5365 54.3694 77.598C54.6267 84.0099 53.2329 90.4969 49.2227 95.665C47.2498 98.2062 44.7087 100.286 41.7386 101.552C40.2804 102.173 38.7471 102.592 37.1709 102.795C38.1895 103.299 39.2296 103.75 40.3018 104.136C46.8853 106.494 54.0156 106.473 60.8242 105.176C61.8536 104.983 62.8829 104.747 63.9015 104.479C66.6893 99.6537 67.7186 93.9602 67.0324 88.4275L67.0431 88.4382Z" fill="#074C36"/>
<path d="M136.545 75.0564C132.106 78.1122 126.712 78.1551 121.844 76.1179C116.29 73.7911 111.723 69.5344 105.933 67.7116C103.123 66.8324 100.164 66.6823 97.3548 67.6258C94.7922 68.4944 92.5405 70.1349 90.7178 72.1078C86.8577 76.2894 85.1529 81.8757 83.877 87.3119C84.3702 86.2075 84.8634 85.1139 85.3888 84.0309C87.158 80.4282 89.4847 77.0507 92.9158 74.8419C96.2183 72.7189 100.121 72.3329 103.724 73.9091C107.176 75.4209 109.718 78.2945 112.698 80.4926C117.791 84.2668 124.911 86.3255 131.184 84.8458C134.379 84.0952 136.834 82.4011 138.85 79.8385C140.919 77.2008 142.571 74.1772 143.16 70.8533C143.579 68.4944 143.353 66.1247 142.592 63.8838C142.506 68.2585 140.147 72.5581 136.545 75.0457V75.0564Z" fill="#83CE8D"/>
<path d="M77.9576 84.3744C75.5879 77.5765 70.5913 72.0116 64.5976 68.1409C59.3222 64.7312 53.3392 62.7369 47.2275 61.4609C53.3607 63.9163 58.6789 68.6663 62.303 74.2204C68.0931 83.0878 69.9802 94.775 64.8549 104.243C70.3876 102.656 75.6308 99.911 79.33 95.4076C79.5337 91.6441 79.2228 87.9985 77.9576 84.3744Z" fill="#5AA575"/>
<path d="M88.2619 13.2867C94.3735 11.5925 101.171 12.4932 106.575 15.8385C111.379 18.8086 115.057 23.5693 116.654 28.9948C118.52 35.3316 117.598 42.3333 114.875 48.2841C112.816 52.7875 109.513 56.8727 105.01 59.0064C102.083 62.4911 97.9333 64.8822 93.43 65.622C87.6614 66.5656 81.539 64.6677 76.8641 61.3009C76.3494 60.9257 75.8562 60.5289 75.363 60.1215C74.1942 61.1723 72.6288 61.8907 71.2027 62.4053C69.3478 63.0701 67.3642 63.3811 65.3913 63.3811C61.5741 63.3811 57.8213 62.2338 54.4009 60.5826C51.2915 59.0814 48.375 57.0657 46.059 54.4816C42.4885 50.4929 40.5585 44.9495 41.6522 39.7706C41.6093 39.1595 41.6093 38.5483 41.6629 37.9264C41.8023 36.4253 42.2204 34.9349 42.8745 33.5624C40.0653 36.1787 38.1567 39.7063 37.0738 43.4055C35.5083 48.713 35.637 54.3315 35.9158 59.8213C36.1088 59.7998 36.3018 59.7998 36.4948 59.7891C37.4812 59.6819 38.4891 59.639 39.4863 59.7033C39.69 59.7141 39.9044 59.7462 40.1082 59.7677C40.1403 59.7677 40.1832 59.7677 40.2154 59.7784C40.5263 59.8106 40.8373 59.8427 41.1589 59.8963C42.5421 60.0679 43.9146 60.3681 45.2441 60.7863C49.1256 61.2902 52.9427 62.1802 56.6204 63.5419C63.3219 66.0295 69.53 70.061 73.9476 75.7438C77.9149 80.8476 80.6705 87.8171 80.0808 94.4327C81.4532 92.5242 82.4933 90.4119 83.469 88.2567C83.4368 88.2246 83.4047 88.1817 83.4154 88.128C84.5412 82.145 86.2461 75.8618 90.5779 71.337C94.0304 67.7343 98.7911 65.6542 103.809 66.4905C109.556 67.4555 114.178 71.3155 119.153 74.039C121.79 75.4865 124.653 76.6874 127.688 76.8697C130.433 77.0305 133.188 76.3121 135.536 74.8861C138.238 73.2456 140.061 70.833 141.048 68.0774C139.643 70.6079 137.188 72.495 134.217 73.267C129.971 74.3714 125.297 73.3421 122.209 70.1468C118.799 66.6192 117.727 61.4939 117.909 56.7333C118.134 50.9754 120.214 45.5392 120.965 39.8564C121.587 35.1172 120.933 30.2707 118.96 25.896C115.175 17.5005 107.326 11.0779 97.9977 10.2523C89.3877 9.49097 80.3381 12.9864 74.859 19.7414C75.3522 20.5027 75.8026 21.2962 76.21 22.1111C78.8048 17.7578 83.4797 14.6162 88.2619 13.2867Z" fill="#177533"/>
<path d="M18.0957 85.2643C20.4761 93.306 26.7379 100.533 33.9647 104.661C40.4946 108.392 47.9572 109.636 55.3878 109.057C63.333 108.435 71.4283 106.291 77.7759 101.294C81.0783 98.6886 83.5016 95.3432 85.3351 91.5797C87.2865 87.5803 88.7555 83.1413 91.8542 79.8281C94.4597 77.0296 98.0409 75.1747 101.858 76.5257C105.579 77.8338 108.324 81.222 111.465 83.463C117.223 87.5803 125.19 89.5425 132.138 87.8591C135.698 86.9906 138.657 85.0177 140.919 82.1549C143.257 79.1955 145.187 75.8394 145.991 72.1295C147.181 66.6933 145.648 61.2893 142.206 56.9897C141.005 55.4886 139.558 54.1269 137.928 53.0975C136.856 52.422 135.269 51.5857 134.014 52.2934C133.178 52.7651 132.974 53.6444 133.124 54.5236C133.221 55.0597 133.735 55.4779 134.218 55.6173C137.67 56.6466 139.461 60.4101 139.279 63.8305C139.075 67.5619 135.923 70.1781 132.352 70.607C128.16 71.1109 124.439 69.0094 122.552 65.2673C120.45 61.0749 120.826 56.0354 121.705 51.5857C122.809 46.0316 124.632 40.5096 124.3 34.7732C124.032 30.2055 122.649 25.7236 120.375 21.7563C115.743 13.6718 107.594 8.0533 98.2768 7.13118C88.8198 6.19834 79.159 10.0798 72.9294 17.1887C70.978 14.9263 68.619 13.0177 65.9063 11.6453C60.5237 8.92181 54.3477 8.22485 48.4397 9.18985C36.3879 11.1628 27.1882 20.5876 22.7599 31.5887C22.4168 32.4464 22.1166 33.315 21.8271 34.1942C18.9428 33.5187 15.8762 34.1727 13.4316 35.9633C10.4937 38.1292 8.58509 41.3995 7.52359 44.8521C5.33625 51.9931 6.98748 59.8526 11.7911 65.5246C13.839 67.9479 16.4123 69.8457 19.2752 71.1967C17.1629 75.6143 16.6375 80.4178 18.0743 85.2643H18.0957ZM108.088 41.807C107.273 39.7054 106.04 37.8719 104.485 36.3922C103.831 34.2049 102.362 32.1248 100.904 30.5486C98.7915 28.2648 96.068 26.5921 93.0658 25.7665C89.9242 24.898 86.536 24.9301 83.4265 25.9273C81.4751 26.5492 79.5987 27.6429 78.4835 29.2834C78.194 27.3427 77.6686 25.4341 76.9288 23.6435C76.8323 23.4183 76.7251 23.2038 76.6286 22.9894C82.1398 13.661 94.7707 10.6052 104.539 15.4838C109.449 17.9392 113.363 22.2496 115.39 27.3427C117.748 33.2721 117.309 40.0056 115.143 45.9243C113.352 50.8351 110.146 55.435 105.664 58.1799C105.933 57.826 106.201 57.4829 106.436 57.1077C109.321 52.6043 110.039 46.825 108.088 41.807ZM77.7115 39.2873C78.7087 36.2743 78.9446 33.0362 78.5479 29.8731C79.8453 27.7715 82.3972 26.6028 84.8204 26.0774C87.7368 25.4341 90.857 25.6164 93.6877 26.5599C96.379 27.4606 98.7808 29.0689 100.657 31.1919C101.558 32.2106 102.341 33.3471 102.973 34.5587C103.123 34.8375 103.252 35.127 103.37 35.4165C101.386 33.8725 98.9952 32.8539 96.3576 32.5215C93.0658 32.1141 89.8706 32.9825 87.3937 34.9018C83.2764 37.3572 79.4593 40.6597 78.2798 45.474C76.9181 51.0281 80.4135 56.3249 85.5066 58.4265C90.4174 60.4637 96.5934 59.7132 100.357 55.7674C103.831 52.1325 104.506 46.3103 101.14 42.3538C99.3812 40.2844 96.3576 38.9763 93.6984 39.9842C92.4654 40.456 91.4146 41.5282 90.9642 42.7827C90.4818 43.7155 90.3745 44.7985 90.8463 45.86C91.5861 47.5219 93.9236 48.5298 95.1674 46.7928C95.6713 46.0959 95.7571 45.2274 95.2639 44.509C95.0709 44.2302 94.6313 44.4768 94.8028 44.7771C95.5105 45.9779 94.2131 47.3826 92.9479 47.0073C91.5218 46.5891 91.0715 45.0344 91.5218 43.7584C92.326 41.4103 95.1674 40.7347 97.1081 42.1072C101.065 44.9164 98.7701 50.5671 94.7814 51.9181C90.9857 53.2155 86.6861 50.4384 85.5388 46.7714C84.4129 43.1794 85.9141 39.1264 88.7126 36.7353C91.8435 34.0655 96.4219 33.7974 100.1 35.4379C104.11 37.2286 106.619 41.0243 107.337 45.2917C108.763 53.8159 102.341 62.6082 93.6341 63.3909C88.5732 63.8412 83.5337 62.4688 79.277 59.7239C77.1969 58.3836 75.2776 56.6788 74.0231 54.5129C73.3583 53.3656 72.8651 52.1004 72.6613 50.7922C72.5648 50.1489 72.5005 49.4734 72.4791 48.8301C72.4576 48.369 72.3933 47.9401 72.329 47.5112C74.7629 45.2703 76.6715 42.4825 77.7223 39.298L77.7115 39.2873ZM87.19 52.6686C89.2594 54.1483 91.9078 54.8131 94.3954 54.1269C96.7864 53.4728 98.8022 51.6393 99.778 49.3769C100.689 47.2432 100.55 44.6913 99.1882 42.772C98.0624 41.1851 96.1538 40.1343 94.2453 40.4453C94.5669 40.338 94.91 40.263 95.2639 40.2415C97.73 40.0593 100.025 41.5282 101.365 43.5118C104.11 47.5541 102.866 52.8831 99.3383 56.0033C95.5534 59.3593 89.7312 59.7453 85.2493 57.6545C80.6923 55.5208 77.733 50.7065 78.9017 45.6563C79.8131 41.7212 82.5258 38.8691 85.6782 36.5745C85.0134 37.3572 84.4451 38.2257 83.9948 39.2015C81.7753 43.9622 82.8368 49.5485 87.2007 52.6794L87.19 52.6686ZM71.1173 54.663C71.9644 56.5715 73.294 58.2121 74.838 59.6274C73.7765 60.3565 72.7364 61.0749 71.4926 61.5681C69.9272 62.1793 68.2652 62.5331 66.5925 62.6403C62.8719 62.8762 59.162 61.9434 55.7738 60.4637C49.9194 57.9333 44.4189 53.4406 42.5425 47.1252C41.9957 45.2596 41.7598 43.3081 41.8992 41.3781C42.7998 45.6134 45.9629 49.1839 49.8873 51.1246C55.1412 53.7194 61.1885 53.5908 66.5175 51.2855C67.7827 50.7386 68.9943 50.0631 70.1202 49.2804C70.0773 49.6235 70.0558 49.9666 70.0773 50.299C70.1523 51.8001 70.5062 53.2798 71.1173 54.663ZM43.2931 32.7788C40.13 35.245 37.9105 38.8155 36.6774 42.6433C34.8761 48.1974 35.0048 54.1161 35.305 59.8954C34.7903 59.9705 34.2649 60.0348 33.7502 60.1421C30.5765 60.8068 27.4884 62.2758 24.9902 64.3988C22.9208 57.2578 23.9394 49.4627 27.0703 42.772C30.3727 35.7275 36.3236 28.8223 44.4725 27.7715C46.038 27.5678 47.6356 27.6429 49.1796 27.9538C46.6277 28.6508 44.6012 30.4735 43.3038 32.7788H43.2931ZM20.6691 82.5087C20.4868 81.5651 20.3903 80.6001 20.3796 79.6244C20.3796 78.3699 20.5083 77.1583 20.8085 75.9467C21.0765 74.8852 21.4196 73.9523 21.7842 73.1589C22.0951 72.5048 22.4383 71.8722 22.8028 71.2503C23.6499 70.3925 24.4648 69.5347 25.3225 68.677C26.6307 67.3689 28.0889 66.2216 29.6865 65.2887C28.7751 67.6905 28.8073 70.5641 29.4292 72.923C29.9653 74.9602 30.9839 76.8152 32.3778 78.3484C32.4314 78.7559 32.4957 79.1526 32.603 79.5493C33.6109 83.2592 36.7632 85.9613 40.4731 86.7654C40.6125 86.7976 40.7412 86.8083 40.8806 86.8298C37.5888 87.5374 34.1899 87.7519 30.8552 87.1943C28.6036 86.819 26.3948 86.1114 24.3575 85.0928C22.9958 84.4173 21.6019 83.6345 20.6691 82.498V82.5087ZM35.4444 77.9196C35.0262 74.9066 37.6103 70.8429 41.0843 72.2689C42.3602 72.7943 43.604 74.6922 42.9714 76.0646C42.0707 77.9946 39.6475 77.4907 38.586 76.0432C38.3179 75.6786 37.7818 75.8931 37.8676 76.3434C38.1571 77.9839 39.8083 78.8953 41.4059 78.7881C43.1966 78.6594 44.5154 77.1797 45.1266 75.5928C45.8235 73.8022 45.1266 71.8508 43.7112 70.607C42.06 69.1702 39.7011 68.8164 37.6424 69.4811C34.1362 70.6177 32.1955 74.0381 32.3027 77.5228C31.2412 76.1075 30.4478 74.4884 30.0189 72.7729C29.6329 71.1967 29.5793 69.5562 29.783 67.9479C29.9224 66.8542 30.2548 65.8141 30.6086 64.7848C31.5522 64.3023 32.5172 63.8841 33.5358 63.5625C39.3794 61.729 46.1988 63.0049 49.8873 68.2374C53.0289 72.6978 52.5571 79.8388 47.5391 82.7875C43.1537 85.3715 36.2056 83.4737 35.4336 77.9196H35.4444ZM23.7785 90.2394C22.5884 88.2665 21.5912 86.1328 20.9908 83.9026C21.5483 84.3529 22.1488 84.7389 22.6313 85.0284C24.84 86.3687 27.2847 87.2801 29.8152 87.7733C33.9111 88.5668 38.0928 88.2558 42.0278 87.012C45.0837 87.2801 48.1181 86.4009 50.4555 84.31C52.0532 82.884 53.2219 81.0183 53.951 78.9918C53.7365 84.5888 52.4284 90.1858 49.0938 94.775C47.2389 97.3161 44.8049 99.4391 41.9421 100.769C40.4517 101.455 38.8648 101.927 37.2457 102.152C36.8704 102.205 36.4951 102.238 36.1199 102.259C31.0268 99.4713 26.7915 95.2467 23.7678 90.2502L23.7785 90.2394ZM40.323 104.146C39.2508 103.76 38.2 103.31 37.1921 102.806C38.7683 102.602 40.3016 102.184 41.7598 101.562C44.7298 100.297 47.271 98.2168 49.2439 95.6756C53.254 90.5075 54.6587 84.0205 54.3906 77.6086C54.6587 76.5364 54.8088 75.4427 54.8195 74.3598C54.8517 68.9665 51.5814 64.5596 47.1638 62.0184C47.8286 62.2758 48.4826 62.5653 49.1153 62.887C58.6581 67.6047 65.7562 77.9196 67.0643 88.4488C67.7505 93.9815 66.7212 99.675 63.9334 104.5C62.9148 104.768 61.8855 105.004 60.8561 105.197C54.0368 106.494 46.9172 106.516 40.3337 104.157L40.323 104.146ZM64.8555 104.232C69.9808 94.7535 68.0937 83.077 62.3036 74.2097C58.6795 68.6662 53.3613 63.9056 47.2281 61.4502C53.3398 62.7261 59.3228 64.7312 64.5982 68.1301C70.5919 72.0009 75.5885 77.5657 77.9581 84.3636C79.2234 87.9878 79.5343 91.6226 79.3306 95.3969C75.6314 99.9002 70.3882 102.645 64.8555 104.232ZM143.171 70.8536C142.581 74.1775 140.93 77.2012 138.861 79.8388C136.845 82.4015 134.389 84.0956 131.194 84.8461C124.922 86.3258 117.802 84.2671 112.709 80.4929C109.739 78.2841 107.187 75.4106 103.734 73.9094C100.132 72.3333 96.2289 72.7193 92.9264 74.8423C89.4953 77.0511 87.1686 80.4286 85.3994 84.0312C84.874 85.1035 84.3808 86.2079 83.8876 87.3123C85.1635 81.8761 86.8683 76.2898 90.7284 72.1081C92.5511 70.1352 94.8028 68.4947 97.3654 67.6262C100.175 66.6719 103.134 66.822 105.943 67.712C111.733 69.5348 116.301 73.7915 121.855 76.1182C126.712 78.1554 132.116 78.1126 136.555 75.0567C140.169 72.5692 142.528 68.2695 142.603 63.8948C143.364 66.1465 143.589 68.5054 143.171 70.8643V70.8536ZM98.0088 10.2299C107.337 11.0448 115.186 17.4782 118.971 25.8737C120.944 30.2377 121.598 35.0948 120.976 39.8341C120.225 45.5062 118.145 50.9531 117.92 56.7109C117.738 61.4716 118.81 66.6076 122.22 70.1245C125.308 73.3197 129.993 74.3491 134.229 73.2447C137.209 72.4727 139.654 70.5855 141.059 68.0551C140.061 70.8107 138.249 73.2339 135.547 74.8637C133.199 76.2898 130.444 77.0082 127.699 76.8473C124.664 76.6651 121.801 75.4642 119.164 74.0167C114.189 71.2932 109.567 67.4225 103.82 66.4682C98.8022 65.6318 94.0415 67.7012 90.589 71.3147C86.2572 75.8394 84.5523 82.1227 83.4265 88.1057C83.4158 88.1593 83.4479 88.2022 83.4801 88.2344C82.5044 90.3788 81.4643 92.5018 80.0919 94.4104C80.6816 87.7948 77.926 80.8253 73.9587 75.7215C69.5412 70.0387 63.333 66.0071 56.6316 63.5196C52.9431 62.1471 49.1367 61.2679 45.2552 60.7639C43.9257 60.3565 42.5639 60.0563 41.1701 59.874C40.8591 59.8204 40.5482 59.7882 40.2265 59.7561C40.1943 59.7561 40.1514 59.7561 40.1193 59.7453C39.9155 59.7239 39.7011 59.6917 39.4974 59.681C38.5002 59.6167 37.503 59.6703 36.5059 59.7668C36.3129 59.7775 36.1199 59.7775 35.9269 59.7989C35.6481 54.3091 35.5194 48.6907 37.0849 43.3832C38.1785 39.684 40.0764 36.1671 42.8856 33.5401C42.2316 34.9126 41.8134 36.403 41.674 37.9041C41.6204 38.526 41.6204 39.1479 41.6633 39.7483C40.5803 44.9164 42.4996 50.4706 46.0701 54.4593C48.3861 57.0433 51.3026 59.0591 54.412 60.5602C57.8217 62.2114 61.5852 63.3587 65.4024 63.3587C67.3753 63.3587 69.3589 63.0478 71.2138 62.383C72.6292 61.8683 74.2054 61.1499 75.3741 60.0992C75.8566 60.5173 76.3605 60.9141 76.8752 61.2786C81.5501 64.6561 87.6832 66.5432 93.4411 65.5997C97.9444 64.8598 102.105 62.4688 105.021 58.984C109.524 56.8503 112.827 52.7759 114.886 48.2618C117.609 42.3109 118.542 35.3093 116.666 28.9724C115.068 23.547 111.39 18.7863 106.587 15.8162C101.183 12.4709 94.3847 11.5702 88.273 13.2643C83.4908 14.5939 78.8159 17.7355 76.2211 22.0887C75.8137 21.2738 75.3633 20.4804 74.8701 19.7191C80.3599 12.9534 89.3988 9.46863 98.0088 10.2299ZM71.0101 19.6441C76.8752 26.7744 77.6257 37.8183 70.86 44.6055C67.5147 47.9616 62.829 49.9666 58.0791 49.9345C53.3505 49.9023 48.354 47.6613 45.9629 43.4368C43.9364 39.8663 44.494 34.7196 47.8393 32.0819C49.2975 30.9239 51.0881 30.5915 52.8788 30.9561C52.6107 30.9882 52.3427 31.0311 52.0746 31.0954C49.6621 31.7281 47.9787 33.9905 47.7428 36.4244C47.464 39.3087 49.394 41.689 51.8173 43.0079C54.3048 44.3589 57.232 44.6805 59.9984 44.1659C65.9814 43.0722 70.3775 38.215 71.3532 32.2749C72.3397 26.2383 69.7985 20.2767 65.1558 16.3845C62.4645 14.1328 59.2049 12.6853 55.7738 12.0313C61.596 12.5459 67.1715 14.9906 70.9994 19.6548L71.0101 19.6441ZM43.2609 13.8862C44.5797 13.3501 45.9522 12.9426 47.3461 12.621C52.3212 11.8704 57.4143 12.2886 61.9176 14.8405C66.5925 17.4889 70.2274 22.1745 70.9029 27.5785C71.5677 32.9718 69.3911 38.7297 64.7054 41.689C60.3522 44.4339 53.6293 44.7878 49.8765 40.7776C47.6463 38.3973 47.8179 34.5694 50.4126 32.4893C51.635 31.5136 53.1039 31.2348 54.5085 31.4707C54.9482 31.6744 55.3771 31.9103 55.7738 32.1998C55.9775 32.3499 56.1598 32.5108 56.3313 32.6823C55.0232 33.3149 54.2083 34.9126 54.4549 36.3708C54.8302 38.6546 57.2106 40.0592 59.4086 39.8662C64.9949 39.3623 66.5068 32.4572 64.759 28.0825C62.6789 22.8822 57.1141 19.376 51.9245 17.8749C45.9415 16.1486 39.9906 17.3924 34.9083 20.8986C32.9461 22.2496 31.1126 23.8365 29.4721 25.5949C32.8817 20.4804 37.5352 16.2344 43.2716 13.9184L43.2609 13.8862ZM10.7617 57.5365C8.8317 51.9073 9.48576 44.7341 13.5173 40.1129C15.576 37.754 18.9964 36.0706 22.0844 37.4859C22.9958 37.9041 24.0895 37.5931 24.4004 36.5424C25.0974 34.0977 26.0409 31.6852 27.2204 29.3799C28.5392 27.5249 30.0296 25.7986 31.7237 24.2225C35.5301 20.7056 40.2908 17.8642 45.5876 17.6283C50.7558 17.4031 56.0633 19.4296 60.0198 22.7106C63.7083 25.7665 66.4853 30.9132 64.1693 35.631C62.947 38.1185 59.8697 40.1879 57.0926 38.8584C55.8274 38.2472 54.7766 36.9712 54.8624 35.5023C54.9267 34.3657 55.6022 33.39 56.5458 32.8539C56.5994 32.9075 56.6637 32.9611 56.7173 33.0147C56.8353 33.1219 56.9532 33.2399 57.0926 33.3257C57.1033 33.3257 57.2427 33.4222 57.3285 33.4651C57.4357 33.583 57.6287 33.7867 57.6716 33.8511C58.3149 34.6123 58.7331 35.5559 58.8618 36.5531C58.9476 37.1964 59.9876 37.5074 60.127 36.7246C60.5237 34.5051 59.8804 31.9103 58.2077 30.3556C56.3849 28.6722 53.9295 27.6 51.442 27.6107C51.0131 27.6107 50.5949 27.6536 50.1982 27.7072C49.0938 27.3855 47.9572 27.1818 46.7885 27.1282C42.5532 26.9566 38.4144 28.6186 35.0905 31.1705C28.6786 36.1027 24.6149 44.2302 23.489 52.1432C22.8886 56.3893 23.1888 60.721 24.4755 64.8062C23.682 65.5353 22.9529 66.3288 22.3203 67.1866C21.9236 67.6369 21.559 68.098 21.2374 68.5805C16.4338 66.554 12.4666 62.4581 10.7724 57.5151L10.7617 57.5365Z" fill="#EDA04C"/>
</svg>
