<svg width="200" height="86" viewBox="0 0 200 86" fill="none" xmlns="http://www.w3.org/2000/svg">
<path d="M195.674 32.4701C195.674 32.4701 194.751 32.4568 193.894 33.1361C193.037 33.8153 192.259 34.4417 192.259 34.4417C191.771 35.2858 190.036 35.8793 188.045 35.8793C187.92 35.8793 187.801 35.8793 187.676 35.8727C184.702 35.7606 181.405 34.178 178.76 32.9053L177.943 32.5096C174.619 30.9072 171.183 29.2454 167.187 28.6454C166.073 28.4805 164.939 28.3948 163.811 28.3948C160.837 28.3948 157.962 28.9619 155.258 30.0829C152.588 31.1908 150.227 32.8327 148.216 34.9759C148.394 34.0263 149.027 32.6019 149.343 31.87L149.521 31.4677C150.266 29.7664 151.077 27.7485 151.216 25.3878C151.328 23.4755 150.992 21.484 150.247 19.6244C148.77 15.9448 145.835 12.9049 142.202 11.2827C140.355 10.4584 138.403 10.0232 136.557 10.0232C136.339 10.0232 136.122 10.0232 135.904 10.043C134.236 7.09534 131.631 4.728 128.42 3.31683C126.079 2.28812 123.514 1.74741 121.008 1.74741C118.818 1.74741 116.728 2.14964 114.796 2.94755C113.378 3.53444 112.072 4.31257 110.932 5.24896C109.837 4.08837 108.571 3.09922 107.16 2.31451C104.693 0.936307 101.937 0.210938 99.1873 0.210938C96.6221 0.210938 94.1163 0.857172 91.9534 2.0837C90.9511 2.65081 90.0345 3.3432 89.2432 4.12133C88.1815 3.85096 87.0605 3.71249 85.9131 3.71249C83.8556 3.71249 81.7983 4.15431 79.9519 4.99837C78.0989 3.96967 75.9557 3.40256 73.773 3.40256C73.14 3.40256 72.5004 3.44873 71.8739 3.54105C70.5353 3.74547 69.223 4.17408 68.0426 4.80053C67.7525 4.89285 67.4821 4.99177 67.2249 5.11047C66.7831 5.30829 66.1303 5.64462 65.4379 6.13919C64.6664 5.82266 63.8816 5.55229 63.0837 5.32809C61.0395 4.75439 58.9228 4.46424 56.7994 4.46424C52.6121 4.46424 48.517 5.58526 44.9693 7.7152C42.8262 9.00109 40.9402 10.6167 39.4961 12.3971C35.9154 12.6675 32.4996 14.4677 30.218 17.3362C28.7474 19.1826 27.7847 21.5302 27.422 24.1151C27.2637 25.2295 27.211 26.3638 27.2637 27.4782C27.2703 27.6628 27.2835 27.8541 27.2967 28.0585C27.2374 28.1112 27.178 28.1706 27.1253 28.2233C26.4856 28.1178 25.8394 28.0651 25.1866 28.0651C22.7137 28.0651 20.3332 28.8234 18.467 30.2082C16.0997 31.9623 14.7544 34.6527 14.6357 37.4355C13.6598 37.9103 12.7696 38.5368 11.9848 39.2951C9.32736 41.8603 8.41736 45.7245 9.67027 49.1337C10.7913 52.2001 13.2773 53.9739 15.1171 55.2862C15.3018 55.4181 15.7172 55.7148 15.8755 55.8797C15.8755 55.9192 15.8755 55.972 15.8755 56.0445C15.8293 56.4006 15.6512 56.8358 15.3809 57.271C15.3413 57.3304 15.3018 57.3898 15.2622 57.4491C14.3522 58.0162 13.218 58.3987 12.0046 58.5437C11.6749 58.5833 11.3386 58.6031 11.0155 58.6031C10.4748 58.6031 9.96041 58.5503 9.43287 58.4382C8.30525 58.2008 7.85684 57.97 7.6788 57.8184C6.8677 57.1326 5.84559 56.7501 4.79051 56.7501C3.26724 56.7501 1.8165 57.5546 1.01859 58.8537C0.207499 60.1659 0.148155 61.7815 0.847146 63.1729C1.96158 65.3886 3.87391 66.8921 5.42356 67.9537C6.97981 69.022 8.79322 69.932 10.8177 70.6442C14.2467 71.8575 18.1043 72.451 22.6082 72.451C22.8654 72.451 23.1225 72.451 23.3797 72.451C26.8021 72.4049 30.1652 72.0817 33.4228 71.7652C34.3592 71.6729 35.2956 71.5872 36.2319 71.5015C38.1575 71.33 40.083 71.2443 41.9689 71.2443C43.8549 71.2443 45.7936 71.33 47.6927 71.508H47.7785C48.0488 71.5872 48.3192 71.6663 48.5896 71.752C49.8425 72.1477 51.0888 72.7873 52.4076 73.4665C52.7373 73.638 53.0737 73.8094 53.41 73.9809L54.2738 74.4161C56.6939 76.3944 59.7734 77.6209 62.9914 77.8781C63.3937 77.9111 63.7959 77.9243 64.1916 77.9243C65.1016 77.9243 66.005 77.8451 66.8952 77.6803C69.1702 80.1136 72.0915 81.8544 75.2238 82.5732C76.5954 82.8897 77.9934 83.048 79.3782 83.048C81.851 83.048 84.1854 82.5468 86.2757 81.5841C88.8475 83.4173 91.8875 84.7559 95.0923 85.4417C96.7804 85.8044 98.4883 85.989 100.17 85.989C101.851 85.989 103.467 85.811 105.036 85.4615C108.261 84.7427 111.453 83.2392 114.512 80.9906C116.22 79.7377 117.671 78.3529 119.069 77.0076C119.808 76.3021 120.507 75.6295 121.225 74.9964C121.984 74.3304 122.61 73.9281 123.144 73.7831C123.368 73.7171 123.626 73.6842 123.903 73.6842C124.358 73.6842 124.879 73.7699 125.446 73.9347C125.604 73.9809 125.769 74.0336 125.967 74.1062C129.534 76.6977 134.223 78.1155 139.241 78.1155H139.36C145.67 78.0891 152.133 75.9987 157.56 72.24C160.098 70.4793 162.294 68.4615 164.075 66.2392C164.576 65.6128 164.998 64.9995 165.4 64.4126C165.737 63.9181 166.06 63.4565 166.376 63.0608C166.581 62.8102 166.831 62.5728 167.847 62.2695L168.018 62.2167C169.403 61.8013 171.124 61.2869 172.713 60.1132C174.026 59.1372 175.127 57.8843 176.076 56.2621C177.105 54.508 177.619 52.721 178.074 51.1384C178.312 50.3075 178.536 49.5294 178.813 48.8304C179.064 48.2039 179.354 47.7292 179.69 47.4258C179.974 47.1686 180.475 46.9378 181.22 46.7202C182.156 46.4499 183.225 46.2982 184.352 46.1334C185.763 45.9289 187.227 45.7245 188.757 45.2563L188.988 45.1838C189.924 44.9002 190.979 44.5771 192.048 44.1023C193.432 43.6407 194.672 42.9945 195.754 42.1834C197.198 41.0953 198.418 39.6908 199.176 38.24C199.176 38.24 199.783 37.1981 199.816 36.4728C199.849 35.7474 199.064 34.3626 199.064 34.3626C198.352 33.1888 197.059 32.4568 195.681 32.4568L195.674 32.4701Z" fill="#EDE0DD"/>
<path d="M114.737 43.1522C112.62 44.326 110.062 44.7084 107.642 44.4183C110.266 45.8492 113.082 46.8779 116.161 46.6867C119.531 46.4757 122.907 44.7678 124.345 41.5828C125.842 38.2724 125.11 34.3422 122.716 31.6584C120.335 28.9877 116.616 27.5897 113.069 28.1107C110.662 28.4668 108.519 29.779 107.187 31.698C108.683 30.445 110.932 29.9835 112.778 30.2868C115.812 30.7814 118.318 33.0762 118.641 36.1821C118.951 39.0901 117.236 41.7674 114.744 43.1456L114.737 43.1522Z" fill="#F9E7E4"/>
<path d="M174.382 41.7405C171.705 41.9054 169.015 42.2285 166.483 43.1451C164.32 43.9232 162.394 45.1498 160.851 46.8577C159.42 48.4403 158.345 50.3131 157.396 52.2122C155.431 56.1424 153.822 60.1979 151.243 63.7851C148.79 67.201 145.612 70.1618 141.629 71.6653C140.29 72.1664 138.899 72.4962 137.494 72.628C142.051 72.9248 146.726 71.7708 150.788 69.7595C153.663 68.3352 156.222 66.4558 158.391 64.1676C158.517 64.0159 158.649 63.8709 158.774 63.7192C159.73 62.5784 160.607 61.3057 161.332 60C162.763 57.4085 164.082 54.6521 163.845 51.6253C163.832 51.4934 164.036 51.4934 164.049 51.6253C164.221 53.175 164.267 54.7906 164.161 56.3402C164.128 56.8414 164.043 57.336 163.931 57.8239C164.801 57.3096 165.784 57.0194 166.753 56.7293C167.861 56.3996 168.936 56.0303 169.799 55.239C170.545 54.5598 171.092 53.7157 171.488 52.7925C172.312 50.867 172.602 48.7634 173.373 46.8181C174.211 44.7079 175.55 42.9011 177.633 41.8856C177.858 41.7801 178.082 41.6812 178.313 41.5889C177.007 41.635 175.695 41.6614 174.396 41.7405H174.382Z" fill="#048241"/>
<path d="M70.4627 53.9869C75.5403 55.5431 81.1454 54.7716 85.7086 52.0943C90.2389 49.4368 93.4635 44.9857 94.479 39.8224C95.4681 34.8042 94.1954 29.5618 90.9247 25.6184C88.1287 22.2487 83.2028 19.1626 78.6858 20.2968C78.7055 20.3364 78.7187 20.3825 78.7385 20.4221C78.8506 20.6925 78.9693 20.9628 79.0814 21.2332C82.1741 23.0862 84.8778 25.559 86.8428 28.6056C88.8343 31.6917 90.0279 35.424 89.6982 39.1168C89.3882 42.5722 87.7858 45.7045 85.3196 48.1246C82.761 50.637 79.3848 52.3185 75.8304 52.8131C72.1443 53.3275 68.3328 52.5296 65.1477 50.5974C64.1652 49.9974 63.2354 49.2852 62.4111 48.4675C64.4224 51.0524 67.2711 53.0109 70.4693 53.9869H70.4627Z" fill="#83CE8D"/>
<path d="M44.4954 14.5796C44.3173 14.8566 44.1459 15.1401 43.9942 15.4368C43.3018 16.7953 42.8798 18.279 42.4973 19.7429C42.1281 21.1673 41.9566 22.618 42.0094 24.0951C42.0357 24.8732 42.1676 25.6514 42.2467 26.4295C42.6226 26.0668 43.0051 25.7107 43.4007 25.3612C47.2056 22.0113 51.7755 19.5583 56.6486 18.2658C57.2355 17.7119 57.6707 17.0129 57.8685 16.1227C58.0927 15.1005 57.8422 14.0257 57.0904 13.2805C56.365 12.5618 55.2506 12.1727 54.2417 12.1134C52.2238 12.0013 49.7708 13.2739 49.4938 15.4698C49.3554 16.5711 49.9422 17.7514 50.9907 18.1801C52.1118 18.6417 53.5229 18.4109 54.3208 17.4679C55.244 16.3798 54.6901 14.7708 53.246 14.5928C52.6921 14.5268 52.026 14.6785 51.7688 15.2192C51.5512 15.6677 51.7227 16.1886 52.0656 16.5249C52.27 16.7293 52.0128 16.9931 51.782 16.8942C51.1424 16.6172 50.9182 15.9314 51.1424 15.2918C51.36 14.6587 51.9469 14.2894 52.5931 14.2037C54.0768 13.9993 55.4551 15.1863 55.1451 16.7293C54.8682 18.1141 53.3845 18.945 52.0722 19.0373C50.5489 19.1428 48.9399 18.3581 48.4256 16.8678C47.9244 15.4171 48.5377 13.8081 49.5202 12.72C50.5489 11.5792 52.059 10.8802 53.5823 10.7879C55.1055 10.6956 56.675 11.1902 57.796 12.2386C58.8907 13.2608 59.3193 14.784 58.95 16.2282C58.8115 16.7755 58.5741 17.2701 58.2642 17.7119C58.4884 17.6327 58.7126 17.5404 58.9368 17.4679C58.9962 17.4481 59.0225 17.5404 58.9632 17.5602C58.673 17.6723 58.3895 17.7976 58.1059 17.9163C60.8491 17.3294 63.6781 17.0986 66.5136 17.303C67.9248 17.4019 69.3426 17.6195 70.7405 17.9295C69.7976 16.0171 68.4721 14.362 66.7774 13.0233C63.0121 10.0427 58.0136 8.75027 53.2921 9.72622C50.9907 10.201 48.7619 11.111 46.8429 12.4628C45.9527 13.0893 45.1746 13.7949 44.502 14.5796H44.4954Z" fill="#F9E7E4"/>
<path d="M40.5447 26.5811C40.3403 26.9174 40.1688 27.2734 40.0567 27.6493C39.9248 28.0648 39.8457 28.4934 39.8193 28.9286C39.8193 28.9748 39.8193 29.0275 39.8193 29.0737C40.2084 28.5989 40.6107 28.1373 41.0327 27.6889C40.8283 27.346 40.6766 26.9701 40.5513 26.5811H40.5447Z" fill="#83CE8D"/>
<path d="M32.9754 29.0209C33.0282 29.1462 33.0941 29.2781 33.1469 29.4034C34.2349 29.2583 35.3427 29.3902 36.3649 29.7925C36.0351 27.8538 36.5759 25.6315 37.3738 23.9763C38.0991 22.4662 39.1872 21.1672 40.5126 20.1582C40.5852 19.8549 40.6511 19.5582 40.7434 19.2614C40.8885 18.7867 41.0731 18.3251 41.2842 17.8832C38.7058 17.6129 35.9626 18.9515 34.4591 21.0287C33.5557 22.275 33.0545 23.7785 32.8831 25.2952C32.7974 26.0337 32.7842 26.7789 32.7974 27.5174C32.804 27.9065 32.8303 28.2692 32.8237 28.6319C32.8699 28.7638 32.9161 28.889 32.9688 29.0209H32.9754Z" fill="#83CE8D"/>
<path d="M20.7488 57.0528C21.3357 55.4636 21.7445 53.8018 22.1072 52.1599C23.0238 47.9791 23.6305 43.5148 26.2484 39.9869C28.3058 37.2107 31.8865 35.1467 35.3749 36.1095C35.6057 35.6017 35.8496 35.0939 36.1068 34.606C36.5684 33.7289 37.0696 32.8783 37.6169 32.0474C37.4389 31.9617 37.274 31.8496 37.0696 31.6847C36.753 31.4275 36.3904 31.2099 36.0145 31.0385C35.177 30.6626 34.2077 30.5109 33.2911 30.623C31.5634 30.8406 29.9346 32.0804 29.651 33.8542C29.5917 34.2235 29.0707 34.4081 28.7806 34.2103C26.7364 32.8519 23.7953 32.8189 21.7247 34.151C19.6607 35.483 18.9749 38.4768 20.6499 40.4023C21.0126 40.8178 20.7752 41.4904 20.1949 41.5036C18.1309 41.5365 15.7569 42.6708 15.0118 44.7084C14.293 46.6669 15.3019 48.3088 16.7593 49.5617C18.1704 50.7751 19.6871 51.8895 20.452 53.6502C20.9268 54.7382 20.9928 55.9252 20.7488 57.0594V57.0528Z" fill="#074C36"/>
<path d="M122.004 57.739C122.446 55.8332 123.409 54.0066 124.899 52.7075C126.502 51.3096 128.559 50.6105 130.636 50.3006C134.388 49.7467 138.681 50.1885 141.781 52.5493C144.893 54.91 146.159 59.1633 144.847 62.8561C144.009 65.2234 142.057 67.1687 139.73 68.1315C138.47 68.8569 136.993 69.2261 135.556 69.1404C132.984 68.9887 130.498 67.5974 129.627 65.0718C128.869 62.8561 130.293 60.5811 132.595 60.1524C134.369 59.8227 137.191 61.1482 136.65 63.3375C136.439 64.1881 135.668 64.775 134.883 65.0586C133.953 65.3883 133.102 65.2564 132.305 64.7025C132.146 64.597 132.298 64.3398 132.456 64.4453C133.215 64.9728 134.448 64.775 135.193 64.32C136.103 63.7727 136.426 62.7704 135.773 61.867C135.048 60.8646 133.656 60.469 132.489 60.7789C131.375 61.0756 130.392 61.9725 130.128 63.1133C129.871 64.2343 130.412 65.3949 131.296 66.0807C133.175 67.5512 135.839 67.8545 138.048 67.0303C140.106 66.2653 141.576 64.3464 141.266 62.0978C140.963 59.8689 139.341 57.917 137.56 56.6575C135.575 55.2529 133.188 54.5605 130.768 55.0551C128.381 55.5431 126.31 56.9674 125.216 59.1699C124.26 61.0888 124.26 63.3309 125.11 65.2762C126.594 68.6656 129.805 70.8417 133.274 71.8968C136.934 72.2001 140.66 70.5977 143.324 68.1315C149.344 62.5659 150.538 53.9934 153.202 46.6474C154.481 43.1261 156.156 39.5718 158.813 36.8681C159.822 35.8394 160.996 34.9294 162.289 34.2766C160.68 34.4348 159.097 34.8107 157.6 35.3976C156.327 35.8988 155.088 36.5912 154.013 37.4352C152.76 38.4178 151.764 39.6575 150.808 40.9236C148.981 43.3371 147.234 45.9154 144.497 47.3794C141.748 48.8499 138.602 48.7839 135.925 47.1749C133.254 45.5725 131.823 42.8953 130.722 40.0927C129.95 38.609 129.278 37.0264 128.79 35.4042C127.108 31.7708 124.919 28.4077 121.371 26.2777C116.742 23.495 110.53 23.5675 105.802 26.1129C103.369 27.4186 101.312 29.5155 100.408 32.1664C99.4915 34.8569 99.9729 37.7452 101.78 39.9543C103.567 42.1501 106.369 43.6009 109.205 43.6668C111.961 43.7327 115.087 42.7238 116.709 40.3499C118.265 38.0815 118.068 35.0217 116.162 33.0237C114.025 30.7882 110.069 30.1222 107.602 32.1928C106.514 33.1028 105.947 34.4348 106.409 35.8262C106.877 37.2308 108.236 38.1474 109.686 38.2727C110.464 38.3386 111.361 38.2595 111.955 37.699C112.41 37.277 112.647 36.5846 112.429 35.9845C112.014 34.8173 109.746 34.6722 109.39 35.9647C109.291 36.3208 108.743 36.1691 108.842 35.8131C109.119 34.8041 110.28 34.3755 111.243 34.4744C112.41 34.5931 113.287 35.5559 113.148 36.756C112.983 38.154 111.658 38.9585 110.365 39.13C107.576 39.4926 104.952 36.789 105.69 33.993C105.796 33.5908 105.961 33.2215 106.165 32.8786C107.372 29.7397 110.735 27.7549 114.124 27.623C117.797 27.4779 121.464 29.2254 123.64 32.1928C125.803 35.1338 126.165 39.2618 124.345 42.4667C122.565 45.5989 118.918 47.1222 115.43 47.1354C112.245 47.1486 109.106 45.9484 106.402 44.2273C106.251 44.1943 106.099 44.168 105.954 44.1284C103.046 43.3701 100.5 41.2467 99.2673 38.4903C97.9419 35.5229 98.3441 32.1335 99.9531 29.3573C102.71 24.6094 108.328 22.2882 113.689 22.3014C114.124 22.064 114.54 21.7937 114.942 21.4837C115.951 20.7056 116.703 19.5846 116.597 18.2591C116.406 15.7467 112.997 14.8961 111.157 16.1819C110.616 16.5644 109.976 16.0435 109.937 15.483C109.798 13.5179 109.192 11.5989 108.097 9.95038C107.926 9.6932 107.734 9.44262 107.543 9.20523C107.517 9.20523 107.49 9.20521 107.471 9.17224C106.356 7.81383 104.846 6.79172 103.184 6.22461C104.919 7.0357 106.429 8.35457 107.352 9.97016C109.244 13.2739 109.007 17.6459 106.798 20.7452C104.602 23.8313 100.771 25.6183 96.9989 25.3612C93.0094 25.0908 89.3034 22.6509 87.9582 18.7999C86.9361 15.872 87.5955 12.5749 89.6595 10.3592C88.4989 9.63385 87.1537 9.27115 85.7821 9.23159C82.696 9.15246 79.8275 10.7878 78.4625 13.5838C77.7964 14.9554 77.6448 16.5446 77.9481 18.0283C78.08 18.668 78.2844 19.2944 78.5218 19.9011C80.9023 19.2087 83.5862 19.8747 85.7689 20.943C88.2747 22.1761 90.4244 24.0753 92.0466 26.3371C95.1723 30.7157 96.0164 36.3142 94.5327 41.4709C93.0226 46.7068 89.2441 50.9864 84.3248 53.301C79.3461 55.6354 73.4442 55.8794 68.3798 53.6505C65.1816 52.2393 62.5176 49.7599 60.9151 46.7134C59.9985 45.4077 59.3391 43.924 59.0687 42.315C58.4357 38.4573 59.9853 34.7052 63.111 32.384C66.1048 30.1618 70.1537 29.3902 73.7344 30.4717C75.5346 31.0124 77.2755 32.0279 78.5218 33.4325C78.0668 32.595 77.4931 31.8037 76.8073 31.1047C74.3608 28.5923 70.8593 27.2141 67.3907 26.9767C61.0866 26.5481 55.0331 29.8453 52.1316 35.4833C49.2631 41.0621 50.3314 47.7289 54.0439 52.6548C57.7961 57.6268 64.0078 60.403 70.1735 60.4822C73.2464 60.5217 76.3127 59.8821 79.1483 58.7149C82.1684 57.4752 84.6808 55.5892 87.1932 53.5516C87.2064 53.545 87.213 53.5516 87.2262 53.5384C89.6925 50.0698 93.3127 47.4453 97.4209 46.2254C102.551 44.7021 108.262 45.5528 112.838 48.2894C117.481 51.0656 121.239 55.9783 120.23 61.6296C119.255 67.0896 114.698 71.4484 109.462 72.9321C105.895 73.941 101.997 73.5454 98.7398 71.877C97.9815 71.6462 97.2429 71.3363 96.5571 70.9209C94.3942 69.602 92.6467 67.3995 92.1324 64.8871C91.585 62.2428 92.4555 59.3018 94.9019 57.9104C97.3286 56.5322 100.824 56.8553 102.696 59.0314C103.573 60.0535 104.147 61.5175 103.738 62.8561C103.336 64.1683 102.268 65.0058 100.949 65.2894C99.8608 65.5202 98.542 65.3817 97.7573 64.5244C97.0912 63.7991 96.9396 62.7836 97.5133 61.9659C97.5924 61.8538 97.7836 61.9659 97.7045 62.078C96.8538 63.2715 97.9617 64.6695 99.2014 64.8937C100.533 65.1377 101.898 64.3266 102.268 63.0209C102.584 61.8735 102.142 60.7327 101.312 59.9348C99.5113 58.2071 96.2735 58.2599 94.6118 60.159C93.161 61.8208 93.2929 64.386 94.2623 66.2455C95.3174 68.2766 97.2429 69.8064 99.452 70.3801C104.114 71.6001 109.106 68.3161 110.339 63.7661C110.972 61.4185 110.649 58.8732 109.508 56.73C108.348 54.5605 106.462 52.9515 104.246 51.9162C99.5245 49.7006 93.9985 50.2808 89.7848 53.3142C85.703 56.2552 83.1642 61.168 83.2829 66.206C83.395 71.211 86.2107 75.5434 90.4574 78.0822C94.625 80.5683 99.841 81.4651 104.556 80.199C107.194 79.4868 109.607 78.1548 111.744 76.46C113.755 74.8642 115.351 72.9123 117.197 71.1517C118.951 69.4833 121.233 67.9996 123.752 68.0853C124.22 68.0985 124.682 68.1711 125.13 68.27C122.083 65.9158 121.167 61.3658 122.011 57.7455L122.004 57.739Z" fill="#177533"/>
<path d="M43.3073 65.7909C45.556 65.7052 47.831 65.9624 49.9411 66.5427C51.3391 66.9251 52.7305 67.4395 54.023 68.1187C53.1855 66.5097 52.7833 64.7029 52.7833 62.8895C49.3674 61.8212 45.8329 61.6036 42.2654 61.9663C35.3217 62.6718 28.734 65.2832 21.7903 65.9954C17.1413 66.4701 12.1758 65.9822 8.12695 63.6148C8.48964 63.872 8.87211 64.116 9.25458 64.3468C10.9097 65.3227 12.7232 66.0019 14.5827 66.4701C18.4865 67.4527 22.6277 67.367 26.6041 66.9713C30.8046 66.5559 34.992 65.969 39.2123 65.7777C40.5773 65.7118 41.9357 65.725 43.3007 65.7975L43.3073 65.7909Z" fill="#83CE8D"/>
<path d="M83.3681 72.4045C82.3262 70.2086 81.8646 67.8215 81.9174 65.4409C80.8359 66.6015 79.1807 67.3269 77.7564 67.7819C73.0217 69.2788 67.7067 69.1733 62.9457 67.861C60.7102 67.2412 58.2901 66.3971 56.4569 64.9266C55.5799 64.221 54.7886 63.2384 54.3798 62.1504C54.3138 63.034 54.3534 63.9177 54.5248 64.7947C55.1183 67.8149 57.0768 70.2481 59.8596 71.5472C62.4973 72.7803 65.6428 73.1101 68.3728 71.9956C68.597 71.9033 68.9069 72.0616 69.019 72.2594C69.7839 73.6442 70.8192 74.5938 72.1645 75.4049C73.4701 76.1896 74.9934 76.6973 76.4903 76.9611C79.5632 77.4952 82.7812 77.2908 85.5046 75.7016C84.6606 74.7125 83.9286 73.6178 83.3615 72.4177L83.3681 72.4045Z" fill="#83CE8D"/>
<path d="M14.3135 64.0102C18.8767 64.3399 23.4531 63.1991 27.3305 60.779C29.2165 59.6052 30.9178 58.1479 32.3751 56.4729C33.2126 55.5102 34.4523 53.8089 35.8833 53.5121C34.9139 51.9757 34.2215 50.2875 33.8061 48.5137C31.3926 48.8434 29.0121 49.8589 27.291 51.5734C25.5105 53.3473 24.3236 55.5827 22.8728 57.6138C21.455 59.6052 19.6153 61.3329 17.3402 62.2957C15.329 63.1463 13.0935 63.4695 10.9174 63.3178C10.5284 63.2914 10.1459 63.2518 9.75684 63.2123C11.2471 63.6277 12.777 63.8981 14.3069 64.0102H14.3135Z" fill="#177533"/>
<path d="M39.3779 28.8232C39.4241 28.3616 39.5428 27.9132 39.7142 27.4845C39.8989 27.0295 40.1495 26.6075 40.4462 26.225C40.2682 25.5194 40.189 24.7809 40.1495 24.0951C40.0835 22.9147 40.1824 21.708 40.4264 20.5342C39.3186 21.4903 38.4086 22.6641 37.7689 23.9896C37.2216 25.137 36.8985 26.3965 36.8062 27.6626C36.7534 28.4539 36.8194 29.2254 36.8919 30.0035C37.4326 30.2541 37.9734 30.597 38.2767 31.0652C38.6262 30.5706 38.9823 30.0827 39.3581 29.6145C39.3318 29.3441 39.345 29.0606 39.3713 28.8166L39.3779 28.8232Z" fill="#83CE8D"/>
<path d="M46.6773 59.0579C44.7979 57.9698 43.1625 56.4135 41.936 54.7122C37.1156 48.0125 38.4015 39.0047 42.1932 32.1797C44.211 28.5462 46.9146 25.1634 50.1458 22.4531C47.2114 24.0292 44.5473 26.0734 42.2591 28.5066C42.2261 28.6056 42.1602 28.6781 42.0745 28.7045C41.2106 29.6409 40.3995 30.63 39.6478 31.6785C35.5396 37.4155 33.0403 45.0582 36.5814 51.6921C38.6455 55.5563 42.4701 58.1808 46.6641 59.0579H46.6773Z" fill="#83CE8D"/>
<path d="M29.4391 37.5612C25.9706 39.7175 24.4341 43.8587 23.5175 47.6372C22.7658 50.7365 22.2976 53.9215 21.1172 56.8625C21.7436 55.9657 22.3239 55.0293 22.9108 54.1259C23.9461 52.5301 25.0671 50.9541 26.4849 49.6946C27.0322 47.6701 28.0082 45.771 29.2875 44.1092C29.9667 43.2256 30.7184 42.3684 31.5889 41.6694C32.123 41.2407 33.0528 40.5879 33.8375 40.6473C34.1606 39.2097 34.642 37.7985 35.2355 36.4467C33.244 36.0511 31.1734 36.4929 29.4457 37.5677L29.4391 37.5612Z" fill="#4A6F70"/>
<path d="M48.6756 60.9108C44.8774 60.6339 41.1582 59.1435 38.3622 56.5322C37.5248 55.7475 36.7928 54.8639 36.1598 53.9209C35.8169 54.0528 35.4674 54.1847 35.1508 54.3891C34.6167 54.732 34.1617 55.1804 33.7331 55.6486C32.922 56.5256 32.1834 57.462 31.3196 58.2929C28.1939 61.2999 24.1318 63.3507 19.8588 64.0958C15.9879 64.7684 12.0775 64.3596 8.4441 63.0078C8.20011 62.9616 7.95613 62.9023 7.71214 62.8363C7.50772 62.7836 7.30989 62.7176 7.10547 62.6517C9.43324 64.1816 12.1501 65.0784 14.8999 65.474C21.4941 66.4302 27.9895 64.4717 34.3463 62.9484C40.2548 61.5307 46.8886 60.3239 52.7971 62.3615C52.8234 61.7747 52.8828 61.1944 52.9883 60.6207C51.5705 60.9174 50.1132 61.0097 48.6691 60.9042L48.6756 60.9108Z" fill="#F9E7E4"/>
<path d="M125.696 27.2413C127.285 25.5465 128.571 23.6276 129.217 21.346C130.602 16.4597 128.551 10.7226 123.533 8.92241C121.146 8.06515 118.64 8.38168 116.477 9.66756C114.525 10.8216 112.982 12.5031 111.479 14.178C113.859 13.268 116.807 14.1846 117.947 16.4465C118.073 15.7541 118.442 15.0946 118.976 14.5671C121.165 12.3844 125.228 12.9053 127.028 15.332C129.079 18.0884 127.621 21.7219 124.97 23.4364C124.12 23.9837 123.157 24.3464 122.148 24.5244C122.966 24.9926 123.75 25.5268 124.489 26.1334C124.911 26.4829 125.313 26.8588 125.702 27.2479L125.696 27.2413Z" fill="#074C36"/>
<path d="M89.0787 20.2969C91.0569 23.5875 94.9607 25.2492 98.7195 24.8799C102.228 24.5305 105.564 22.4269 107.18 19.255C108.828 16.0107 108.545 11.764 106.191 8.92844C104.45 6.83806 101.911 5.77638 99.2931 5.75C98.8711 5.78957 98.4491 5.86211 98.0336 5.96762C95.7125 6.55451 93.5298 7.95909 92.2901 9.96374C91.4987 11.7112 91.3734 13.6763 91.8746 15.5491C92.9297 19.4858 97.1039 22.3214 101.14 20.8772C104.951 19.5122 107.365 14.1313 104.021 11.0518C102.538 9.68678 100.263 9.28452 98.3897 10.056C96.7346 10.7419 95.4949 12.8388 96.8137 14.428C97.8094 15.6348 100.025 15.892 101.304 15.0413C102.129 14.494 102.577 13.1422 101.509 12.5751C100.863 12.2322 99.6624 12.2849 99.3525 13.063C99.2931 13.2015 99.069 13.1488 99.1151 12.9971C99.3591 12.1926 100.282 11.9288 101.041 12.0277C102.03 12.153 102.676 12.9246 102.61 13.9269C102.439 16.4789 99.1019 16.9471 97.2753 15.9315C95.3828 14.8896 95.0596 12.4959 96.3389 10.8276C97.7237 9.02735 100.46 8.7438 102.478 9.48895C104.641 10.2935 106.197 12.3772 106.25 14.6984C106.309 17.2174 104.793 19.5848 102.821 21.0421C100.652 22.6511 97.8029 22.8028 95.3498 21.7741C92.8704 20.7388 91.0569 18.7671 90.1337 16.2415C89.4809 14.4478 89.4941 12.4366 90.0876 10.6298C90.015 10.577 89.9425 10.5177 89.8634 10.4649C87.4894 13.1092 87.2125 17.1647 89.0918 20.2903L89.0787 20.2969Z" fill="#5AA575"/>
<path d="M72.7119 31.349C69.4345 30.6368 65.8341 31.5996 63.3217 33.8285C60.6972 36.1496 59.6553 39.7303 60.6576 43.0934C62.5238 49.3447 70.2325 52.3122 76.2003 51.1384C82.056 49.9844 87.5226 45.2101 88.0435 39.0379C88.6238 32.1733 83.9089 26.0868 78.3104 22.6842C71.8876 18.7804 64.0998 17.9033 56.8659 19.8025C55.1382 20.2575 53.4567 20.8642 51.8411 21.6027C50.753 22.4402 49.7177 23.3502 48.7484 24.3195C43.4466 29.6015 39.2065 36.9278 39.3186 44.5969C39.3713 48.4018 40.5055 52.2462 42.9322 55.2202C44.4423 57.0732 46.3151 58.4119 48.4252 59.3219C50.2321 59.4801 52.0719 59.3219 53.8391 58.7877C54.4128 58.6163 54.9733 59.19 54.8085 59.7571C54.6766 60.2055 54.5711 60.6671 54.492 61.1287C54.8678 63.0674 56.4175 64.5511 58.2177 65.5271C62.2204 67.6834 67.0408 68.5274 71.5513 68.3032C73.734 68.1911 75.9629 67.868 78.0335 67.1492C78.9435 66.8327 79.8139 66.4239 80.6118 65.8766C81.1196 65.5271 81.5416 65.1248 81.9307 64.683C82.1351 61.6628 83.1638 58.702 84.9377 56.1896C85.0498 56.0247 85.1751 55.8731 85.2937 55.7148C80.3019 59.6582 73.701 61.643 67.3771 60.7594C60.9873 59.8626 55.0327 56.1368 52.0125 50.3471C50.5354 47.5247 49.7705 44.3002 50.0343 41.1085C50.2848 38.0752 51.4586 35.1671 53.3182 32.7668C57.3011 27.6167 64.2251 25.401 70.4962 27.0891C73.4834 27.8936 76.286 29.5884 78.0994 32.1337C78.6599 32.925 79.1215 33.8087 79.4512 34.7451C79.926 35.5759 80.2491 36.4991 80.3415 37.5147C80.6514 40.9305 78.3434 43.9902 75.1518 45.0123C72.0261 46.0146 67.6079 45.2168 66.6056 41.6031C65.7286 38.4313 69.2103 36.1233 72.0723 36.7629C73.4241 37.0662 74.466 38.0818 74.6506 39.4797C74.8221 40.7458 74.2352 41.8669 73.1273 42.4801C72.9559 42.5724 72.8042 42.3153 72.9757 42.2164C74.1956 41.5437 74.5319 40.0007 73.8659 38.8137C72.3888 36.2024 67.5816 37.2443 67.1529 40.1524C66.9155 41.768 68.063 43.2714 69.4214 44.0034C70.9776 44.8409 72.9163 44.8541 74.5715 44.3265C77.5059 43.3901 79.7216 40.4887 79.2996 37.3366C78.8643 34.0856 75.6925 32.0019 72.7053 31.349H72.7119Z" fill="#074C36"/>
<path d="M104.582 71.8046C103.375 72.2003 102.116 72.3388 100.869 72.253C104.213 73.3675 107.912 73.2883 111.275 71.8244C116.109 69.7143 120.105 64.8873 119.999 59.4206C119.894 53.9408 115.139 49.5886 110.431 47.5378C105.769 45.5067 100.395 45.3815 95.6862 47.3268C92.9694 48.4544 90.5295 50.215 88.5645 52.4043C91.7033 49.9579 95.6269 48.6258 99.7153 49.0215C105.367 49.5688 110.866 53.1429 112.073 58.9722C112.62 61.6165 112.238 64.4454 110.86 66.7798C109.468 69.1274 107.18 70.9474 104.588 71.7915L104.582 71.8046Z" fill="#83CE8D"/>
<path d="M72.6784 8.94189C71.5772 9.11335 70.5683 9.54196 69.6253 10.1223C69.1769 10.3992 68.7483 10.7025 68.346 11.0454C68.0756 11.2762 67.8251 11.5268 67.5547 11.751C69.9022 13.4326 71.8146 15.7076 72.6125 18.4178C74.0962 18.8597 75.5535 19.4202 76.9449 20.0928C76.5954 19.2157 76.3844 18.2991 76.2987 17.3562C76.0745 14.8701 77.0175 12.4434 78.6726 10.6564C77.0834 9.24521 74.7688 8.61876 72.6784 8.94848V8.94189Z" fill="#83CE8D"/>
<path d="M133.807 42.6711C133.9 42.8293 133.999 42.9876 134.098 43.1393C134.836 44.0625 135.647 44.9263 136.564 45.6451C136.689 45.744 136.814 45.8297 136.946 45.922C137.889 46.4826 138.931 46.8387 140.039 46.898C141.008 46.865 141.951 46.5419 142.815 46.0935C143.85 45.5528 144.813 44.867 145.73 44.1284C144.635 44.4383 143.481 44.5438 142.347 44.3922C139.854 44.0691 137.586 42.6513 136.195 40.5543C134.836 38.5035 134.348 35.9845 134.282 33.5578C134.196 30.564 134.803 27.6098 135.107 24.6424C135.265 23.1059 135.344 21.5629 135.212 20.0198C135.113 18.8394 134.81 17.5338 133.985 16.6963C134.21 19.8483 133.082 22.9015 131.908 25.8491C131.196 27.6296 130.537 29.4891 130.319 31.4081C130.22 32.3181 130.181 33.2281 130.326 34.1381C130.866 35.3053 131.354 36.4988 131.79 37.7122C132.39 39.4003 132.917 41.1148 133.814 42.6777L133.807 42.6711Z" fill="#048241"/>
<path d="M163.449 34.1976C160.871 35.2461 158.675 37.409 157.138 39.6708C152.549 46.43 151.916 54.9036 148.269 62.0979C146.667 65.2566 144.451 68.2306 141.424 70.1495C139.334 71.4749 136.934 72.2399 134.507 72.2135C134.632 72.2399 134.757 72.2663 134.883 72.2926C138.022 72.4905 141.259 71.6266 143.943 70.0572C147.768 67.8283 150.61 64.2476 152.786 60.4625C154.909 56.7698 156.281 52.6747 158.556 49.0743C159.605 47.4125 160.871 45.8826 162.447 44.7023C164.201 43.3834 166.265 42.5591 168.395 42.058C170.663 41.5238 172.998 41.359 175.319 41.2667C176.967 41.2007 178.616 41.1216 180.258 41.0095C181.214 40.8117 182.197 40.7062 183.172 40.6534C180.647 40.1061 178.28 39.0906 175.919 37.9564C172.859 36.4858 169.793 34.9494 166.41 34.3823C165.434 34.2174 164.438 34.1646 163.442 34.191L163.449 34.1976Z" fill="#074C36"/>
<path d="M141.734 66.4297C143.369 65.1438 144.543 63.2974 144.853 61.0751C145.387 57.3032 143.442 53.7159 140.098 51.9553C136.861 50.254 132.785 50.1023 129.29 51.0123C127.385 51.5069 125.584 52.4301 124.305 53.9599C123.065 55.4502 122.38 57.3692 122.188 59.2815C121.852 62.5654 122.92 65.9813 125.393 68.1837C125.321 68.0848 125.235 67.9925 125.162 67.887C123.837 66.034 123.046 63.6931 123.303 61.3982C123.593 58.7803 125.07 56.4723 127.266 55.0282C129.554 53.5181 132.495 53.0499 135.146 53.7621C137.724 54.4545 140.019 56.169 141.51 58.3715C142.954 60.508 143.554 63.3172 142.241 65.6647C142.09 65.9351 141.912 66.1923 141.727 66.4363L141.734 66.4297Z" fill="#83CE8D"/>
<path d="M30.8115 47.3595C31.4578 47.076 32.1831 46.8848 32.8953 46.8782C33.1129 46.8782 33.3174 46.9045 33.5086 46.9507C33.4954 46.8584 33.4756 46.766 33.4624 46.6737C33.2382 44.7878 33.3635 42.9018 33.7394 41.0488C33.4163 41.1477 33.08 41.2137 32.7634 41.3785C32.2953 41.6291 31.8732 41.9391 31.4776 42.2952C30.7258 42.981 30.0466 43.7591 29.4333 44.5702C28.3321 46.0473 27.4814 47.6827 26.8154 49.4038C27.1913 49.0938 27.5804 48.7971 27.9958 48.5399C28.8662 47.9992 29.8224 47.5771 30.7984 47.3595H30.8115Z" fill="#83CE8D"/>
<path d="M139.083 19.8543C138.311 17.9684 136.795 16.3462 134.876 15.6934C134.711 15.7329 134.553 15.7791 134.388 15.8384C134.223 15.8978 134.065 15.9703 133.913 16.0495C133.92 16.1088 133.926 16.1681 133.933 16.2275C135.845 17.6387 135.707 21.0347 135.581 23.1383C135.278 28.4664 133.438 34.3089 136.043 39.3667C137.27 41.7473 139.518 43.4486 142.176 43.8838C143.758 44.141 145.328 43.8838 146.746 43.2639C146.897 43.1321 147.055 43.0002 147.207 42.8683C147.319 42.7232 147.431 42.5782 147.537 42.4265C146.185 43.0661 144.695 43.2903 143.257 42.6111C141.055 41.5692 139.855 39.1228 139.413 36.8345C138.872 34.0452 139.307 31.2162 139.63 28.4269C139.96 25.5847 140.178 22.5712 139.07 19.8543H139.083Z" fill="#83CE8D"/>
<path d="M116.233 22.4861C117.506 22.6707 118.733 22.9938 119.906 23.4554C121.318 23.4225 122.709 23.0532 123.916 22.2751C125.643 21.154 126.857 19.1098 126.204 17.026C125.525 14.8763 122.854 13.7091 120.797 14.5268C119.84 14.9027 118.911 15.7468 118.878 16.8414C118.851 17.8239 119.682 18.6944 120.52 19.09C121.469 19.5385 123.124 19.5055 123.632 18.3911C124.252 17.026 122.419 16.3336 121.463 17.0458C121.337 17.1447 121.225 16.9469 121.304 16.8414C122.135 15.8061 124.021 16.327 124.311 17.58C124.687 19.2021 122.834 20.1715 121.476 20.1781C120.295 20.1781 119.095 19.5978 118.423 18.6284C118.363 20.1781 117.513 21.5761 116.24 22.4927L116.233 22.4861Z" fill="#83CE8D"/>
<path d="M138.931 18.846C141.701 23.8312 139.188 29.6737 139.578 34.9689C139.769 37.5539 140.672 40.5147 143.026 41.9325C144.86 43.0403 146.607 42.4072 148.229 41.4445C148.308 41.3258 148.394 41.2071 148.473 41.0884C147.359 41.273 146.225 41.062 145.176 40.3696C142.677 38.7013 142.242 35.4569 143.086 32.7599C144.055 29.6606 146.251 26.8316 145.651 23.4224C145.143 20.5143 143.165 18.0415 140.613 16.6303C139.34 15.9247 137.909 15.5291 136.452 15.5225C136.076 15.5225 135.713 15.5488 135.351 15.6082C136.867 16.2017 138.133 17.4216 138.931 18.8592V18.846Z" fill="#4A6F70"/>
<path d="M117.559 8.70413C122.439 6.65331 127.8 9.71963 129.449 14.5268C131.011 19.0769 129.35 24.2138 125.987 27.5307C127.279 28.8825 128.374 30.4256 129.284 32.061C129.284 32.0082 129.277 31.9489 129.271 31.8895C129.205 29.9508 129.693 28.0319 130.26 26.1921C131.302 22.8158 132.911 19.2615 132.086 15.6611C131.354 12.476 129.079 9.85812 126.145 8.47993C123.217 7.10173 119.557 6.87093 116.557 8.15681C115.152 8.76348 113.86 9.70646 112.91 10.9132C112.475 11.4671 112.106 12.0936 111.862 12.753C111.743 13.0695 111.677 13.3992 111.552 13.7092C113.227 11.6979 115.119 9.72624 117.553 8.70413H117.559Z" fill="#83CE8D"/>
<path d="M87.2328 53.532C87.6878 52.8924 88.189 52.2923 88.7231 51.712L87.3647 51.3361L87.6944 51.1053C86.6064 51.9362 85.5843 52.7143 84.3248 53.3078C79.3461 55.6422 73.4442 55.8862 68.3798 53.6573C65.1816 52.2461 62.5176 49.7667 60.9151 46.7201C59.9985 45.4145 59.3391 43.9308 59.0687 42.3218C58.4357 38.4641 59.9853 34.712 63.111 32.3908C66.1048 30.1686 70.1537 29.397 73.7344 30.4785C75.5346 31.0192 77.2755 32.0347 78.5218 33.4393C78.0668 32.6019 77.4931 31.8105 76.8073 31.1116C74.3608 28.5991 70.8593 27.2209 67.3907 26.9835C61.0866 26.5549 55.0331 29.852 52.1316 35.4901C49.2631 41.0689 50.3314 47.7357 54.0439 52.6616C57.7961 57.6336 64.0078 60.4098 70.1735 60.489C73.2464 60.5285 76.3127 59.8889 79.1483 58.7217C82.1684 57.482 84.6808 55.596 87.1932 53.5584C87.2064 53.5518 87.213 53.5584 87.2262 53.5452L87.2328 53.532Z" fill="#4A6F70"/>
<path d="M121.739 60.5212L120.078 62.3214C118.851 67.4517 114.472 71.5006 109.467 72.9184C105.9 73.9273 102.003 73.5316 98.7451 71.8633C97.9868 71.6325 97.2482 71.3226 96.5624 70.9071C94.3995 69.5883 92.652 67.3858 92.1376 64.8734C91.5903 62.2291 92.4608 59.2881 94.9072 57.8967C97.3339 56.5185 100.829 56.8416 102.702 59.0177C103.579 60.0398 104.152 61.5037 103.744 62.8424C103.341 64.1546 102.273 64.9921 100.954 65.2756C99.8661 65.5064 98.5473 65.368 97.7625 64.5107C97.0965 63.7853 96.9449 62.7698 97.5186 61.9521C97.5977 61.84 97.7889 61.9521 97.7098 62.0642C96.8591 63.2578 97.967 64.6558 99.2067 64.88C100.539 65.124 101.904 64.3129 102.273 63.0072C102.59 61.8598 102.148 60.719 101.317 59.9211C99.5166 58.1934 96.2788 58.2462 94.6171 60.1453C93.1664 61.8071 93.2982 64.3722 94.2676 66.2318C95.3227 68.2628 97.2482 69.7927 99.4573 70.3664C104.119 71.5863 109.111 68.3024 110.344 63.7524C110.977 61.4048 110.654 58.8594 109.514 56.7163C108.353 54.5468 106.467 52.9378 104.251 51.9025C99.5298 49.6868 94.0038 50.2671 89.7901 53.3005C85.7083 56.2415 83.1695 61.1542 83.2882 66.1922C83.4003 71.1973 86.216 75.5297 90.4627 78.0685C94.6303 80.5545 99.8463 81.4513 104.561 80.1852C107.199 79.4731 109.612 78.141 111.749 76.4463C113.76 74.8505 115.356 72.8986 117.202 71.1379C118.957 69.4696 121.238 67.9859 123.757 68.0716C124.225 68.0848 124.687 68.1573 125.135 68.2562C123.309 66.8451 122.128 62.8357 121.752 60.5212H121.739Z" fill="#F9E7E4"/>
<path d="M119.827 63.3377C119.9 63.12 119.906 62.9288 120.071 62.7508C120.216 62.5925 120.407 62.487 120.566 62.3485C120.869 62.0847 121.133 61.7616 121.35 61.4187C121.555 61.0956 121.726 60.6999 121.786 60.3175C121.845 59.9416 121.898 59.5064 121.825 59.1305C121.812 59.0646 121.7 59.0646 121.687 59.1305C121.647 59.3349 121.634 59.5394 121.588 59.7438C121.542 59.9548 121.456 60.146 121.377 60.3439C121.218 60.7395 121.04 61.1286 120.796 61.4781C120.559 61.8276 120.236 62.0847 119.966 62.4079C119.787 62.6189 119.484 63.1134 119.781 63.3508C119.794 63.364 119.82 63.3574 119.827 63.3377Z" fill="#ED684C"/>
<path d="M87.2052 51.507C87.3701 51.54 87.5415 51.5861 87.7064 51.6059C87.8646 51.6257 88.0295 51.6323 88.1877 51.6455C88.346 51.6587 88.5109 51.6719 88.6691 51.685C88.7549 51.6916 88.8472 51.7114 88.9263 51.7048C89.012 51.7048 89.078 51.6653 89.1571 51.6323C89.223 51.6059 89.2099 51.5136 89.1571 51.4806C89.0846 51.4345 89.0186 51.3949 88.9263 51.3817C88.8538 51.3751 88.7746 51.3751 88.7021 51.3685C88.5372 51.3619 88.3658 51.3487 88.2009 51.3421C88.0427 51.3356 87.8778 51.3224 87.7196 51.3158C87.5547 51.3092 87.3832 51.329 87.2184 51.3421C87.1327 51.3421 87.1063 51.4806 87.1986 51.5004L87.2052 51.507Z" fill="#ED684C"/>
<path d="M195.629 36.387C194.079 39.0708 190.406 39.8687 187.531 39.7566C183.865 39.6181 180.337 37.9696 177.079 36.4133C173.723 34.8043 170.333 33.0568 166.614 32.4963C163.297 32.0018 159.862 32.3908 156.756 33.6767C153.834 34.8901 151.526 36.8024 149.68 39.3016C149.515 39.3544 149.35 39.4005 149.185 39.4401C147.695 39.8358 146.159 39.4203 145.189 38.1674C143.257 35.6616 144.886 32.3645 145.967 29.8982C146.633 28.3749 147.24 26.8319 147.339 25.1569C147.418 23.7722 147.161 22.3544 146.647 21.0751C145.545 18.3253 143.336 16.0437 140.626 14.8369C139.156 14.1775 137.474 13.795 135.858 13.9467C135.239 14.0061 134.335 14.1577 133.59 14.494C132.614 11.0914 130.102 8.30201 126.864 6.88424C123.567 5.4401 119.656 5.16315 116.287 6.54795C114.526 7.27332 112.957 8.41412 111.789 9.9242C111.315 10.5375 110.932 11.2035 110.635 11.9157C109.594 9.33731 107.787 7.12824 105.261 5.71706C101.766 3.76516 97.4073 3.46843 93.8662 5.47968C92.521 6.24462 91.2483 7.41838 90.5427 8.84274C87.8522 7.19417 84.199 7.2865 81.4097 8.62513C80.8162 8.90869 80.2557 9.25819 79.7479 9.66044C77.8356 7.80086 75.066 7.00954 72.4481 7.40519C71.4325 7.55686 70.4302 7.90636 69.54 8.4339C69.296 8.49324 69.052 8.56579 68.8278 8.6713C68.1222 8.98782 67.3507 9.50216 66.8561 10.1022C66.6583 10.3462 66.4605 10.6298 66.3022 10.9265C64.9372 10.1154 63.4799 9.49557 62.0423 9.09332C56.9779 7.67556 51.4915 8.36795 46.9678 11.0716C44.8313 12.3509 42.7739 14.1643 41.488 16.3404C38.3887 15.9447 35.2169 17.3296 33.2716 19.776C32.1571 21.1806 31.5307 22.9017 31.2801 24.669C31.1548 25.546 31.1152 26.4296 31.1548 27.3133C31.1812 27.9133 31.2076 28.4936 31.3658 29.0476C31.3658 29.0805 31.3526 29.1135 31.3526 29.1399C31.3395 29.3443 31.3395 29.5487 31.3526 29.7531C31.3526 29.8191 31.3658 29.8784 31.3724 29.9444C30.1723 30.5378 29.1568 31.5336 28.7084 32.7865C26.2685 31.5402 22.9911 31.705 20.7887 33.3404C18.6125 34.956 17.9267 37.8707 19.061 40.2248C17.4388 40.3501 15.8825 40.9436 14.6824 42.1042C13.1789 43.5549 12.5854 45.8167 13.3174 47.8016C14.0295 49.7469 15.7506 50.9669 17.3728 52.1275C18.1444 52.6814 18.9027 53.2485 19.3445 54.1123C19.727 54.8575 19.8259 55.7279 19.7138 56.5522C19.5819 57.5413 19.1862 58.4975 18.6587 59.3416C18.4609 59.6515 18.2499 59.9548 18.0322 60.2582C16.4298 61.4649 14.4318 62.1705 12.4601 62.4079C11.1676 62.5662 9.89493 62.5134 8.62224 62.2496C7.4023 61.9925 6.11643 61.61 5.15366 60.7923C4.69207 60.4032 4.03923 60.8846 4.31619 61.4385C5.00859 62.8233 6.36701 63.9048 7.61992 64.7621C8.99812 65.7116 10.528 66.437 12.104 66.9909C15.6847 68.257 19.5357 68.6197 23.3142 68.5669C27.528 68.5076 31.6824 68.0064 35.8763 67.6306C39.945 67.2679 43.9741 67.2613 48.0361 67.6306C48.1812 67.6437 48.3263 67.6635 48.4713 67.6767C48.9 67.7888 49.322 67.9075 49.744 68.0394C51.6696 68.6461 53.3577 69.6022 55.1447 70.5056C55.5668 70.7167 55.9954 70.9343 56.4174 71.1519C58.3034 72.8136 60.7301 73.7962 63.282 74.0006C65.0031 74.1391 66.7177 73.8753 68.3135 73.2423C70.1071 75.9525 72.9097 78.0561 76.0815 78.788C79.6952 79.6255 83.6451 79.1111 86.6323 76.8691C89.1711 79.2826 92.4814 80.918 95.8972 81.6499C98.6207 82.2368 101.456 82.283 104.18 81.6763C107.088 81.0235 109.811 79.6189 112.198 77.8648C114.546 76.1437 116.471 74.0072 118.641 72.0883C119.643 71.2046 120.777 70.4133 122.076 70.044C123.54 69.6352 125.09 69.7869 126.528 70.2089C126.983 70.3408 127.418 70.5056 127.86 70.6837C131.058 73.1763 135.258 74.2578 139.327 74.238C145.011 74.2116 150.669 72.2795 155.325 69.0549C157.448 67.5778 159.4 65.8369 161.022 63.8191C161.84 62.7969 162.506 61.6628 163.324 60.6406C164.234 59.5064 165.341 58.9657 166.713 58.5569C167.992 58.1744 169.285 57.8117 170.373 57.0006C171.349 56.2752 172.087 55.3454 172.701 54.3035C173.96 52.1604 174.27 49.7008 175.167 47.4126C175.589 46.3377 176.189 45.3354 177.053 44.5572C177.917 43.7725 179.005 43.3175 180.112 43.001C182.566 42.2888 185.164 42.2954 187.604 41.5503C188.632 41.2337 189.648 40.9436 190.624 40.4886C191.633 40.1721 192.582 39.7105 193.4 39.0906C194.323 38.3982 195.18 37.4684 195.715 36.4463C195.747 36.387 195.655 36.3342 195.622 36.3935L195.629 36.387ZM183.172 40.66C182.19 40.7128 181.214 40.8183 180.258 41.0161C178.616 41.1282 176.974 41.2074 175.318 41.2733C172.997 41.3656 170.663 41.5305 168.395 42.0646C166.271 42.5592 164.201 43.3901 162.446 44.7089C160.87 45.8959 159.604 47.4258 158.556 49.0809C156.274 52.688 154.909 56.7764 152.786 60.4692C150.603 64.2543 147.761 67.835 143.943 70.0638C141.259 71.6333 138.021 72.4971 134.882 72.2993C134.757 72.2729 134.632 72.2465 134.507 72.2202C136.933 72.2465 139.334 71.4816 141.424 70.1562C144.451 68.2372 146.666 65.2632 148.269 62.1046C151.915 54.9102 152.548 46.4366 157.138 39.6775C158.675 37.4157 160.864 35.2528 163.449 34.2043C164.445 34.1779 165.434 34.2372 166.416 34.3955C169.792 34.9626 172.865 36.4991 175.925 37.9696C178.286 39.1038 180.653 40.1193 183.179 40.6666L183.172 40.66ZM141.516 58.3722C140.026 56.1697 137.725 54.4552 135.153 53.7628C132.509 53.0506 129.568 53.5254 127.273 55.0289C125.077 56.4731 123.6 58.7811 123.31 61.399C123.052 63.6938 123.844 66.0281 125.169 67.8877C125.242 67.9866 125.321 68.0856 125.4 68.1845C122.934 65.982 121.865 62.5662 122.195 59.2822C122.393 57.3699 123.072 55.451 124.312 53.9607C125.585 52.4308 127.391 51.5076 129.297 51.013C132.792 50.1096 136.867 50.2547 140.105 51.956C143.448 53.7167 145.387 57.3039 144.86 61.0759C144.55 63.2981 143.376 65.1445 141.741 66.4304C141.932 66.1864 142.103 65.9358 142.255 65.6589C143.567 63.3113 142.967 60.5022 141.523 58.3656L141.516 58.3722ZM130.313 31.4017C130.524 29.4828 131.19 27.6298 131.902 25.8427C133.076 22.8951 134.203 19.842 133.979 16.6899C134.81 17.5274 135.107 18.833 135.206 20.0134C135.331 21.5499 135.252 23.0995 135.1 24.636C134.797 27.6034 134.197 30.5576 134.276 33.5514C134.342 35.9781 134.83 38.4905 136.188 40.5479C137.58 42.6449 139.848 44.0561 142.341 44.3858C143.475 44.5375 144.629 44.4319 145.723 44.122C144.8 44.8606 143.844 45.5464 142.809 46.0871C141.952 46.5355 141.009 46.8586 140.033 46.8916C138.931 46.8323 137.883 46.4762 136.94 45.9157C136.808 45.8299 136.683 45.7376 136.557 45.6387C135.641 44.9265 134.83 44.0627 134.091 43.1329C133.992 42.9812 133.893 42.823 133.801 42.6647C132.904 41.1018 132.377 39.3873 131.777 37.6992C131.348 36.4859 130.853 35.2923 130.313 34.1251C130.168 33.2217 130.207 32.3051 130.306 31.3951L130.313 31.4017ZM139.426 36.8354C139.868 39.1236 141.068 41.5635 143.27 42.6119C144.701 43.2912 146.198 43.0669 147.55 42.4273C147.445 42.579 147.326 42.724 147.22 42.8691C147.069 43.001 146.91 43.1329 146.759 43.2648C145.334 43.8846 143.765 44.1418 142.189 43.8846C139.531 43.4494 137.289 41.7547 136.056 39.3676C133.445 34.3098 135.285 28.4673 135.595 23.1391C135.713 21.0355 135.858 17.6395 133.946 16.2283C133.94 16.169 133.933 16.1096 133.926 16.0503C134.078 15.9711 134.236 15.8986 134.401 15.8393C134.566 15.7799 134.724 15.7337 134.889 15.6942C136.808 16.3536 138.325 17.9692 139.096 19.8552C140.204 22.5654 139.98 25.5856 139.657 28.4277C139.334 31.2171 138.898 34.046 139.439 36.8354H139.426ZM136.452 15.5161C137.909 15.5227 139.34 15.925 140.613 16.624C143.165 18.0351 145.143 20.508 145.651 23.416C146.251 26.8253 144.055 29.6542 143.086 32.7535C142.242 35.4506 142.67 38.695 145.176 40.3633C146.218 41.0623 147.359 41.2733 148.473 41.0821C148.394 41.2008 148.315 41.3195 148.229 41.4382C146.607 42.4009 144.866 43.0274 143.026 41.9261C140.672 40.5084 139.769 37.5476 139.578 34.9626C139.189 29.6608 141.701 23.8183 138.931 18.8396C138.133 17.4021 136.867 16.1822 135.351 15.5887C135.713 15.5293 136.076 15.5029 136.452 15.5029V15.5161ZM111.869 12.7531C112.113 12.0937 112.482 11.4673 112.917 10.9133C113.867 9.70659 115.152 8.76362 116.564 8.15695C119.564 6.87107 123.224 7.10186 126.152 8.48006C129.086 9.86485 131.361 12.4762 132.093 15.6612C132.924 19.2617 131.308 22.816 130.267 26.1922C129.699 28.0254 129.211 29.951 129.277 31.8897C129.277 31.9424 129.284 32.0018 129.291 32.0611C128.374 30.4258 127.286 28.8827 125.993 27.5309C129.356 24.2139 131.018 19.0836 129.455 14.527C127.807 9.71977 122.446 6.65345 117.566 8.70426C115.133 9.72637 113.24 11.6981 111.565 13.7093C111.69 13.3994 111.756 13.0631 111.875 12.7531H111.869ZM118.423 18.622C119.096 19.598 120.296 20.1783 121.476 20.1717C122.835 20.1651 124.688 19.1957 124.312 17.5735C124.022 16.3206 122.136 15.7997 121.305 16.835C121.219 16.9405 121.331 17.1317 121.463 17.0394C122.419 16.3272 124.253 17.0196 123.633 18.3846C123.132 19.4925 121.47 19.532 120.52 19.0836C119.689 18.688 118.852 17.8109 118.878 16.835C118.911 15.7403 119.841 14.9029 120.797 14.5204C122.855 13.7027 125.525 14.8699 126.204 17.0196C126.857 19.1034 125.644 21.1476 123.916 22.2687C122.709 23.0534 121.318 23.4161 119.907 23.449C118.733 22.994 117.507 22.6643 116.234 22.4797C117.507 21.5631 118.364 20.1651 118.417 18.6154L118.423 18.622ZM124.965 23.4292C127.616 21.7147 129.073 18.0813 127.022 15.3249C125.222 12.8982 121.16 12.3773 118.971 14.56C118.436 15.0941 118.074 15.7469 117.942 16.4393C116.801 14.1775 113.853 13.2609 111.473 14.1709C112.976 12.496 114.519 10.821 116.471 9.66044C118.634 8.37456 121.14 8.06462 123.527 8.91528C128.539 10.7089 130.59 16.4525 129.211 21.3389C128.565 23.6205 127.279 25.5394 125.69 27.2341C125.301 26.8451 124.899 26.4692 124.477 26.1197C123.738 25.5064 122.953 24.9789 122.136 24.5107C123.138 24.3327 124.107 23.97 124.958 23.4226L124.965 23.4292ZM90.0811 10.6364C89.4876 12.4432 89.4744 14.4545 90.1273 16.2481C91.0439 18.7737 92.8639 20.7454 95.3433 21.7807C97.7964 22.8094 100.645 22.6511 102.815 21.0487C104.786 19.5848 106.303 17.224 106.244 14.705C106.191 12.3839 104.641 10.2935 102.472 9.49558C100.454 8.75043 97.7173 9.02739 96.3325 10.8342C95.0532 12.5026 95.3763 14.8897 97.2688 15.9382C99.102 16.9471 102.432 16.4855 102.604 13.9335C102.67 12.9312 102.03 12.1596 101.034 12.0344C100.276 11.9354 99.3526 12.1992 99.1086 13.0037C99.0625 13.1554 99.2867 13.2081 99.346 13.0697C99.656 12.2915 100.856 12.2388 101.502 12.5817C102.571 13.1554 102.122 14.5006 101.298 15.0479C100.019 15.8986 97.7964 15.6414 96.8073 14.4347C95.495 12.8389 96.7281 10.7419 98.3833 10.0627C100.249 9.29115 102.531 9.69341 104.015 11.0584C107.358 14.1379 104.951 19.5188 101.133 20.8839C97.0974 22.328 92.9232 19.4925 91.8681 15.5557C91.367 13.6895 91.4989 11.7178 92.2836 9.97037C93.5299 7.96571 95.7126 6.56773 98.0272 5.97425C98.4426 5.86874 98.8646 5.79619 99.2867 5.75663C101.911 5.77641 104.443 6.84469 106.184 8.93507C108.538 11.7706 108.829 16.0173 107.173 19.2617C105.558 22.4269 102.221 24.5371 98.713 24.8866C94.9543 25.2624 91.0439 23.5941 89.0722 20.3036C87.1928 17.1779 87.4698 13.1224 89.8437 10.4781C89.9228 10.5309 89.9954 10.5902 90.0679 10.643L90.0811 10.6364ZM76.2991 17.3493C76.3848 18.2923 76.5959 19.2089 76.9454 20.086C75.5474 19.4067 74.0966 18.8462 72.6129 18.411C71.815 15.7008 69.9027 13.4324 67.5551 11.7442C67.8255 11.52 68.0761 11.276 68.3464 11.0386C68.7487 10.6891 69.1707 10.3858 69.6257 10.1154C70.5687 9.54174 71.5842 9.11311 72.6789 8.93507C74.7692 8.60535 77.0772 9.2318 78.673 10.643C77.0179 12.43 76.0749 14.8567 76.2991 17.3427V17.3493ZM74.578 44.3199C72.9229 44.8474 70.9841 44.8342 69.4279 43.9967C68.0695 43.2648 66.9221 41.7613 67.1595 40.1457C67.5881 37.231 72.3953 36.1891 73.8724 38.807C74.545 39.994 74.2087 41.5371 72.9822 42.2097C72.8107 42.302 72.9624 42.5658 73.1339 42.4734C74.2417 41.8602 74.822 40.7392 74.6571 39.4731C74.4725 38.0817 73.4306 37.0596 72.0788 36.7562C69.2169 36.1166 65.7351 38.418 66.6121 41.5964C67.6079 45.2101 72.0326 46.008 75.1583 45.0056C78.3499 43.9835 80.6579 40.9238 80.348 37.508C80.2557 36.4925 79.9391 35.5693 79.4578 34.7384C79.128 33.802 78.6664 32.9184 78.1059 32.1271C76.2925 29.5817 73.4899 27.887 70.5027 27.0825C64.2316 25.3943 57.3076 27.61 53.3247 32.7601C51.4717 35.1604 50.2913 38.0751 50.0408 41.1019C49.777 44.2869 50.5485 47.5181 52.019 50.3404C55.0458 56.1236 61.0004 59.8493 67.3837 60.7527C73.7076 61.643 80.3084 59.6515 85.3003 55.7081C85.1816 55.8664 85.0563 56.0247 84.9442 56.1829C83.1703 58.6887 82.1416 61.6562 81.9372 64.6763C81.5481 65.1181 81.1195 65.5204 80.6183 65.8699C79.8204 66.4172 78.95 66.826 78.04 67.1426C75.9694 67.8613 73.7405 68.1845 71.5578 68.2966C67.0474 68.5208 62.227 67.6767 58.2242 65.5204C56.4174 64.551 54.8744 63.0673 54.4985 61.122C54.5776 60.6604 54.6831 60.1988 54.815 59.7504C54.9799 59.1833 54.4194 58.6096 53.8457 58.7811C52.0784 59.3152 50.2386 59.4734 48.4318 59.3152C46.3216 58.4052 44.4488 57.0665 42.9388 55.2136C40.5121 52.2395 39.3779 48.3951 39.3251 44.5902C39.213 36.9211 43.4531 29.6015 48.7549 24.3129C49.7308 23.3435 50.7661 22.4401 51.8476 21.596C53.4566 20.8509 55.1381 20.2508 56.8724 19.7958C64.0997 17.8967 71.8875 18.7737 78.3169 22.6775C83.9155 26.0801 88.6304 32.1666 88.0501 39.0312C87.5291 45.2101 82.0559 49.9843 76.2068 51.1317C70.2324 52.3055 62.5237 49.3381 60.6641 43.0867C59.6618 39.7237 60.7037 36.143 63.3282 33.8218C65.8406 31.5995 69.4411 30.6302 72.7184 31.3423C75.7056 31.9886 78.8775 34.0724 79.3127 37.3299C79.7347 40.482 77.519 43.3835 74.5846 44.3199H74.578ZM112.073 58.9723C110.873 53.1364 105.373 49.5623 99.7153 49.0216C95.6335 48.6259 91.7033 49.9645 88.5644 52.4044C90.5295 50.2151 92.9628 48.4479 95.6862 47.3268C100.395 45.3815 105.769 45.5068 110.431 47.5379C115.139 49.5887 119.894 53.9409 119.999 59.4207C120.105 64.8807 116.109 69.7143 111.275 71.8245C107.912 73.2884 104.213 73.3675 100.869 72.2531C102.116 72.3388 103.375 72.1938 104.582 71.8047C107.173 70.9606 109.462 69.1406 110.853 66.7931C112.238 64.4587 112.614 61.6298 112.066 58.9855L112.073 58.9723ZM52.8038 62.3617C46.8887 60.3241 40.2615 61.5375 34.353 62.9486C28.0028 64.4719 21.5074 66.4304 14.9066 65.4742C12.1502 65.072 9.43993 64.1817 7.11216 62.6519C7.30999 62.7178 7.51441 62.7838 7.71883 62.8365C7.96282 62.9025 8.2068 62.9552 8.45079 63.008C12.0842 64.3598 15.9946 64.7686 19.8655 64.096C24.1385 63.3575 28.2006 61.3067 31.3263 58.2931C32.1901 57.4622 32.9287 56.5258 33.7398 55.6488C34.1684 55.1872 34.6234 54.7322 35.1575 54.3893C35.4741 54.1849 35.8236 54.053 36.1665 53.9211C36.7995 54.8641 37.5315 55.7477 38.3689 56.5324C41.1649 59.1437 44.8841 60.634 48.6824 60.911C50.1265 61.0165 51.5838 60.9176 53.0016 60.6274C52.8961 61.2011 52.8301 61.788 52.8104 62.3683L52.8038 62.3617ZM33.8387 40.6337C33.054 40.5743 32.1242 41.2271 31.59 41.6558C30.7196 42.3548 29.9679 43.2186 29.2887 44.0956C28.0094 45.7574 27.0334 47.6566 26.4861 49.681C25.0683 50.9405 23.9473 52.5165 22.912 54.1123C22.3251 55.0223 21.7448 55.9521 21.1184 56.8489C22.2987 53.9079 22.7669 50.7229 23.5187 47.6236C24.4353 43.8385 25.9717 39.7039 29.4403 37.5475C31.168 36.4727 33.2386 36.0309 35.2301 36.4265C34.6432 37.7784 34.1618 39.1895 33.8321 40.6271L33.8387 40.6337ZM29.4469 44.5704C30.0536 43.7528 30.7328 42.9746 31.4911 42.2954C31.8868 41.9393 32.3022 41.6228 32.777 41.3788C33.0935 41.2139 33.4232 41.1414 33.753 41.0491C33.3771 42.8955 33.2518 44.788 33.476 46.674C33.4892 46.7663 33.509 46.8586 33.5222 46.951C33.3243 46.9048 33.1265 46.8784 32.9089 46.8784C32.2033 46.8784 31.4779 47.0696 30.8251 47.3598C29.8492 47.5774 28.893 47.9994 28.0225 48.5402C27.6005 48.8039 27.2115 49.0941 26.8422 49.404C27.5082 47.6895 28.3523 46.0541 29.4601 44.5704H29.4469ZM39.6614 31.6721C40.4066 30.6302 41.2177 29.6344 42.0881 28.6981C42.1738 28.6717 42.2398 28.5991 42.2727 28.5002C44.5609 26.0669 47.2316 24.0227 50.1595 22.4467C46.9283 25.1569 44.2246 28.5398 42.2068 32.1732C38.4151 38.9983 37.1292 48.0126 41.9496 54.7058C43.1696 56.4005 44.8115 57.9568 46.6909 59.0514C42.4903 58.1744 38.6723 55.5499 36.6083 51.6856C33.0606 45.0584 35.5664 37.4091 39.6746 31.6721H39.6614ZM36.8984 30.0037C36.8325 29.2256 36.7599 28.4541 36.8127 27.6628C36.905 26.3967 37.2281 25.1371 37.7755 23.9897C38.4085 22.6577 39.3251 21.4905 40.4329 20.5344C40.1955 21.7015 40.0966 22.9149 40.156 24.0953C40.1955 24.7877 40.2747 25.5196 40.4527 26.2252C40.156 26.6077 39.9054 27.0297 39.7208 27.4847C39.5427 27.9133 39.4306 28.3617 39.3845 28.8233C39.3581 29.0673 39.3383 29.3509 39.3713 29.6212C38.9954 30.096 38.6393 30.584 38.2898 31.072C37.9931 30.5972 37.4457 30.2609 36.905 30.0103L36.8984 30.0037ZM39.8131 29.0739C39.8131 29.0278 39.8131 28.975 39.8131 28.9289C39.8395 28.5002 39.9252 28.065 40.0505 27.6496C40.1692 27.2737 40.3406 26.9176 40.5385 26.5813C40.6571 26.9704 40.8154 27.3462 41.0198 27.6891C40.6044 28.1375 40.2021 28.5991 39.8065 29.0739H39.8131ZM65.1416 50.5976C68.3266 52.5297 72.1381 53.3276 75.8243 52.8133C79.3786 52.3187 82.7549 50.6371 85.3135 48.1247C87.7797 45.7046 89.3821 42.5724 89.692 39.117C90.0218 35.4176 88.8348 31.6918 86.8367 28.6057C84.8716 25.5658 82.168 23.0929 79.0753 21.2334C78.9632 20.963 78.8445 20.6926 78.7324 20.4223C78.7126 20.3827 78.6994 20.3365 78.6796 20.297C83.1967 19.1627 88.1226 22.2489 90.9186 25.6185C94.1959 29.5619 95.462 34.8043 94.4729 39.8226C93.4574 44.9859 90.2328 49.437 85.7025 52.0945C81.1393 54.7717 75.5342 55.5433 70.4566 53.987C67.2584 53.0111 64.4163 51.0592 62.3984 48.4676C63.2227 49.2853 64.1459 49.9975 65.135 50.5976H65.1416ZM53.2917 9.71318C58.0132 8.74383 63.0117 10.0297 66.777 13.0103C68.4717 14.3489 69.7972 16.0041 70.7402 17.9164C69.3422 17.5999 67.9244 17.3889 66.5132 17.29C63.6777 17.0922 60.8554 17.3164 58.1055 17.9033C58.3891 17.7846 58.6726 17.6593 58.9628 17.5472C59.0221 17.5274 58.9958 17.4285 58.9364 17.4548C58.7122 17.5274 58.488 17.6197 58.2638 17.6988C58.5737 17.257 58.8111 16.7625 58.9496 16.2151C59.3189 14.771 58.8903 13.2411 57.7956 12.2256C56.6746 11.1837 55.1052 10.6891 53.5819 10.7749C52.0586 10.8672 50.5419 11.5662 49.5198 12.707C48.5373 13.8016 47.924 15.404 48.4252 16.8548C48.9395 18.3451 50.5485 19.1298 52.0718 19.0243C53.3841 18.932 54.8678 18.1011 55.1447 16.7163C55.4547 15.1732 54.083 13.9929 52.5927 14.1907C51.9465 14.2764 51.3596 14.6457 51.142 15.2787C50.9178 15.925 51.142 16.6042 51.7817 16.8811C52.0125 16.9801 52.2696 16.7163 52.0652 16.5119C51.7289 16.1756 51.5574 15.6546 51.7685 15.2062C52.0322 14.6655 52.6983 14.5072 53.2456 14.5797C54.6897 14.7512 55.2436 16.3668 54.3205 17.4548C53.516 18.3978 52.1114 18.6286 50.9903 18.167C49.9419 17.7384 49.355 16.558 49.4935 15.4568C49.7638 13.2609 52.2169 11.9816 54.2413 12.1003C55.2502 12.1596 56.3581 12.5487 57.09 13.2675C57.8418 14.0126 58.0989 15.0875 57.8681 16.1096C57.6703 16.9998 57.2285 17.6988 56.6482 18.2528C51.7751 19.5452 47.2052 21.9983 43.4004 25.3482C43.0113 25.6911 42.6222 26.0538 42.2464 26.4164C42.1606 25.6383 42.0353 24.8668 42.009 24.0821C41.9562 22.605 42.1211 21.1608 42.4969 19.7299C42.8794 18.2659 43.3014 16.7756 43.9938 15.4238C44.1455 15.1271 44.317 14.8435 44.495 14.5666C45.1742 13.7819 45.9457 13.0763 46.836 12.4498C48.7615 11.0914 50.9838 10.188 53.2851 9.71318H53.2917ZM32.8957 25.2822C33.0672 23.7656 33.5683 22.2621 34.4717 21.0158C35.9752 18.9386 38.7184 17.5999 41.2968 17.8703C41.0858 18.3187 40.9011 18.7737 40.7561 19.2485C40.6637 19.5452 40.5978 19.842 40.5253 20.1453C39.1998 21.1542 38.1118 22.4533 37.3864 23.9634C36.5885 25.6185 36.0478 27.8474 36.3775 29.7795C35.3554 29.3773 34.2475 29.2388 33.1595 29.3904C33.1001 29.2652 33.0408 29.1399 32.988 29.008C32.9353 28.8827 32.8891 28.7508 32.843 28.6189C32.8495 28.2562 32.8298 27.887 32.8166 27.5045C32.7968 26.7659 32.8166 26.0142 32.9023 25.2822H32.8957ZM16.7596 49.5491C15.3022 48.2962 14.2933 46.6542 15.0121 44.6957C15.7572 42.6581 18.1312 41.5239 20.1952 41.4909C20.7755 41.4843 21.0129 40.8051 20.6502 40.3897C18.9752 38.4641 19.661 35.4704 21.725 34.1383C23.7956 32.8063 26.7367 32.8392 28.7809 34.1977C29.0776 34.3955 29.5986 34.2108 29.6513 33.8416C29.9349 32.0677 31.5571 30.8214 33.2914 30.6104C34.208 30.4983 35.1707 30.65 36.0148 31.0258C36.3907 31.1907 36.7533 31.4149 37.0699 31.6721C37.2743 31.8369 37.4391 31.949 37.6172 32.0347C37.0765 32.8656 36.5687 33.7229 36.1071 34.5933C35.8499 35.0879 35.6059 35.5891 35.3751 36.0968C31.8868 35.1341 28.3127 37.1915 26.2487 39.9742C23.6308 43.5088 23.0175 47.9665 22.1075 52.1472C21.7448 53.7958 21.336 55.4509 20.7491 57.0402C20.9997 55.9059 20.9271 54.7256 20.4523 53.6309C19.6874 51.8703 18.1707 50.7558 16.7596 49.5425V49.5491ZM10.917 63.3113C13.0932 63.463 15.3286 63.1399 17.3398 62.2892C19.6149 61.3264 21.4481 59.5987 22.8724 57.6073C24.3232 55.5762 25.5101 53.3474 27.2906 51.5669C29.0117 49.8524 31.3922 48.8303 33.8057 48.5072C34.2211 50.2811 34.9201 51.9758 35.8829 53.5056C34.452 53.7958 33.2122 55.5037 32.3748 56.4665C30.9174 58.1414 29.2161 59.5987 27.3302 60.7725C23.4527 63.1926 18.8763 64.3334 14.3131 64.0037C12.7832 63.8916 11.2534 63.6212 9.76305 63.2058C10.1455 63.252 10.5346 63.2849 10.9236 63.3113H10.917ZM26.6114 66.9579C22.635 67.3536 18.4938 67.4393 14.59 66.4568C12.7305 65.9886 10.917 65.3028 9.26188 64.3334C8.87282 64.1092 8.49695 63.8652 8.13427 63.6015C12.1831 65.9688 17.1486 66.4568 21.7976 65.982C28.7413 65.2698 35.329 62.6585 42.2727 61.9529C45.8468 61.5902 49.3748 61.8078 52.7906 62.8761C52.7906 64.6895 53.1928 66.4963 54.0303 68.1053C52.7312 67.4261 51.3464 66.9118 49.9485 66.5293C47.8383 65.9556 45.5633 65.6918 43.3146 65.7776C41.9562 65.705 40.5912 65.6918 39.2262 65.7578C35.0059 65.9556 30.8185 66.5359 26.618 66.9513L26.6114 66.9579ZM76.4969 76.9416C75 76.6845 73.4768 76.1767 72.1711 75.3854C70.8259 74.5743 69.7906 73.6247 69.0256 72.2399C68.9135 72.0421 68.6036 71.8839 68.3794 71.9762C65.6494 73.0906 62.5039 72.7543 59.8662 71.5277C57.0834 70.2287 55.1315 67.802 54.5315 64.7752C54.36 63.9048 54.3204 63.0146 54.3864 62.1309C54.8018 63.219 55.5866 64.2015 56.4636 64.9071C58.2902 66.3776 60.7169 67.2217 62.9523 67.8416C67.7134 69.1538 73.0284 69.2659 77.763 67.7624C79.1874 67.314 80.836 66.5821 81.924 65.4215C81.8713 67.7954 82.3394 70.1825 83.3747 72.385C83.9419 73.5852 84.6672 74.6798 85.5179 75.6689C82.7945 77.2582 79.5764 77.4626 76.5035 76.9284L76.4969 76.9416ZM123.745 68.0724C121.226 67.9866 118.944 69.4703 117.19 71.1387C115.344 72.8994 113.741 74.8513 111.737 76.4471C109.607 78.1418 107.187 79.4738 104.549 80.186C99.8406 81.4587 94.6179 80.5619 90.4504 78.0693C86.2037 75.5305 83.3945 71.198 83.2758 66.193C83.1571 61.155 85.7025 56.2423 89.7778 53.3012C93.9915 50.2679 99.5175 49.6876 104.239 51.9032C106.448 52.9385 108.341 54.5475 109.501 56.717C110.642 58.8536 110.965 61.4056 110.332 63.7531C109.106 68.3032 104.107 71.5871 99.445 70.3672C97.2359 69.7869 95.3104 68.257 94.2553 66.2326C93.2859 64.373 93.154 61.8078 94.6048 60.1461C96.2731 58.2403 99.5043 58.1876 101.305 59.9219C102.135 60.7198 102.584 61.8606 102.261 63.008C101.898 64.3202 100.526 65.1313 99.1944 64.8807C97.9546 64.6499 96.8468 63.252 97.6975 62.065C97.7766 61.9463 97.592 61.8408 97.5062 61.9529C96.9259 62.7706 97.0842 63.7861 97.7502 64.5115C98.5349 65.3687 99.8604 65.5072 100.942 65.2764C102.261 64.9928 103.329 64.1554 103.731 62.8431C104.147 61.4979 103.573 60.0406 102.689 59.0184C100.817 56.8423 97.3216 56.5258 94.8949 57.8974C92.4419 59.2888 91.578 62.2233 92.1253 64.8741C92.6397 67.38 94.3871 69.589 96.5501 70.9079C97.2359 71.3233 97.9744 71.6399 98.7328 71.8641C101.997 73.5324 105.894 73.9281 109.455 72.9191C114.691 71.4354 119.247 67.0766 120.223 61.6166C121.232 55.9653 117.474 51.0526 112.831 48.2764C108.261 45.5398 102.544 44.6891 97.4139 46.2124C93.3057 47.4323 89.6788 50.0569 87.2192 53.5254C87.206 53.5254 87.1994 53.5254 87.1862 53.5386C84.6672 55.5696 82.1548 57.4622 79.1412 58.7019C76.2991 59.8691 73.2394 60.5087 70.1665 60.4692C64.0008 60.3901 57.789 57.6205 54.0369 52.6418C50.3243 47.7225 49.2561 41.0557 52.1246 35.4704C55.0194 29.8323 61.0796 26.5351 67.3837 26.9638C70.8523 27.2012 74.3538 28.5794 76.8003 31.0918C77.4861 31.7974 78.0598 32.5821 78.5148 33.4195C77.2684 32.015 75.5276 30.9994 73.7273 30.4587C70.1467 29.3838 66.0978 30.1488 63.104 32.3711C59.9783 34.6922 58.4287 38.451 59.0617 42.302C59.3255 43.911 59.9849 45.3947 60.9081 46.7004C62.5105 49.7535 65.1746 52.233 68.3728 53.6375C73.4306 55.8664 79.3391 55.629 84.3177 53.288C89.237 50.9801 93.0156 46.7004 94.5256 41.4579C96.0093 36.3078 95.1653 30.7027 92.0396 26.3241C90.4174 24.0557 88.2677 22.1631 85.7619 20.93C83.5858 19.8552 80.8953 19.1957 78.5148 19.8881C78.2774 19.2814 78.0664 18.655 77.9411 18.0154C77.6377 16.5316 77.7894 14.9358 78.4554 13.5708C79.8204 10.7683 82.6889 9.13289 85.775 9.21861C87.1467 9.25818 88.4985 9.62086 89.6525 10.3462C87.5951 12.5619 86.9291 15.859 87.9512 18.7869C89.2964 22.6313 93.0024 25.0778 96.9919 25.3482C100.764 25.6053 104.595 23.8117 106.791 20.7322C109 17.6395 109.231 13.2609 107.345 9.95717C106.422 8.34157 104.912 7.02273 103.177 6.21163C104.839 6.77874 106.349 7.80085 107.464 9.15927C107.483 9.18565 107.51 9.19223 107.536 9.19223C107.727 9.42962 107.919 9.68021 108.09 9.93739C109.185 11.586 109.791 13.5049 109.93 15.47C109.969 16.0305 110.609 16.5514 111.15 16.169C112.99 14.8765 116.392 15.7337 116.59 18.2462C116.689 19.5716 115.944 20.6926 114.935 21.4708C114.533 21.7807 114.117 22.051 113.682 22.2884C108.314 22.2752 102.696 24.5964 99.9461 29.3443C98.3305 32.1205 97.9349 35.5099 99.2603 38.4773C100.493 41.2337 103.039 43.3571 105.947 44.1154C106.092 44.155 106.25 44.1814 106.395 44.2143C109.099 45.9354 112.244 47.1356 115.423 47.1224C118.918 47.1092 122.558 45.5859 124.338 42.4537C126.158 39.2489 125.796 35.1209 123.633 32.1798C121.457 29.2124 117.784 27.4649 114.117 27.61C110.728 27.7419 107.365 29.7268 106.158 32.8656C105.953 33.2019 105.789 33.5712 105.683 33.98C104.938 36.7694 107.569 39.4731 110.358 39.117C111.658 38.9455 112.976 38.1476 113.141 36.743C113.286 35.5429 112.409 34.5801 111.235 34.4614C110.273 34.3691 109.112 34.7911 108.835 35.8001C108.736 36.1562 109.29 36.3078 109.382 35.9517C109.739 34.6593 112.007 34.8043 112.422 35.9715C112.633 36.5716 112.396 37.264 111.948 37.686C111.354 38.2465 110.451 38.3191 109.679 38.2597C108.228 38.141 106.863 37.2178 106.402 35.8133C105.94 34.4219 106.514 33.0898 107.595 32.1798C110.068 30.1158 114.025 30.7753 116.155 33.0107C118.061 35.0088 118.252 38.0685 116.702 40.3369C115.08 42.7043 111.954 43.7198 109.198 43.6538C106.362 43.5879 103.56 42.1371 101.773 39.9413C99.9725 37.7322 99.4911 34.8439 100.401 32.1534C101.305 29.5025 103.362 27.4056 105.795 26.0999C110.523 23.5545 116.735 23.482 121.364 26.2648C124.912 28.3947 127.108 31.7578 128.783 35.3912C129.271 37.0134 129.943 38.596 130.715 40.0797C131.816 42.8823 133.254 45.5596 135.918 47.162C138.595 48.771 141.741 48.8369 144.49 47.3664C147.227 45.9025 148.981 43.3241 150.801 40.9106C151.757 39.6445 152.746 38.4048 154.006 37.4222C155.087 36.5782 156.32 35.8858 157.593 35.3846C159.083 34.7977 160.673 34.4153 162.282 34.2636C160.996 34.9164 159.815 35.833 158.806 36.8551C156.156 39.5588 154.474 43.1131 153.195 46.6344C150.531 53.9804 149.337 62.553 143.317 68.1185C140.652 70.5848 136.927 72.1872 133.267 71.8838C129.798 70.8288 126.587 68.6526 125.103 65.2632C124.246 63.3113 124.253 61.0693 125.209 59.1569C126.303 56.9544 128.374 55.5301 130.761 55.0421C133.181 54.5475 135.568 55.2399 137.553 56.6445C139.34 57.904 140.956 59.8559 141.259 62.0848C141.569 64.3334 140.099 66.2523 138.041 67.0173C135.825 67.8416 133.168 67.5382 131.289 66.0677C130.405 65.3753 129.864 64.2213 130.121 63.1003C130.385 61.9529 131.368 61.0627 132.482 60.7659C133.649 60.456 135.041 60.8517 135.766 61.854C136.419 62.7574 136.089 63.7597 135.186 64.307C134.441 64.7555 133.208 64.9599 132.449 64.4323C132.291 64.3202 132.146 64.5774 132.298 64.6895C133.095 65.2434 133.946 65.3753 134.876 65.0456C135.667 64.762 136.439 64.1751 136.643 63.3245C137.177 61.1352 134.362 59.8098 132.588 60.1395C130.286 60.5681 128.862 62.8497 129.62 65.0588C130.484 67.5844 132.97 68.9824 135.549 69.1274C136.986 69.2132 138.463 68.8439 139.723 68.1185C142.05 67.1492 143.996 65.2105 144.84 62.8431C146.152 59.1503 144.886 54.9036 141.773 52.5363C138.674 50.1821 134.381 49.7337 130.629 50.2876C128.552 50.5976 126.495 51.2966 124.892 52.6945C123.402 53.987 122.446 55.8202 121.997 57.726C121.153 61.3462 122.07 65.8962 125.116 68.2504C124.668 68.1449 124.213 68.0789 123.738 68.0658L123.745 68.0724ZM118.634 36.1825C118.305 33.0701 115.805 30.7818 112.772 30.2873C110.926 29.9839 108.677 30.4455 107.18 31.6984C108.512 29.7795 110.655 28.4607 113.062 28.1112C116.61 27.5902 120.329 28.9882 122.709 31.6589C125.103 34.3427 125.835 38.2729 124.338 41.5832C122.901 44.7683 119.531 46.4762 116.155 46.6872C113.075 46.8784 110.26 45.8497 107.635 44.4188C110.055 44.7089 112.614 44.3264 114.73 43.1527C117.23 41.7745 118.938 39.0972 118.628 36.1891L118.634 36.1825ZM173.36 46.8125C172.588 48.7578 172.298 50.8679 171.474 52.7869C171.078 53.7101 170.531 54.5541 169.786 55.2333C168.922 56.0247 167.847 56.3939 166.739 56.7236C165.77 57.0138 164.787 57.3039 163.917 57.8183C164.023 57.3303 164.108 56.8424 164.148 56.3346C164.26 54.7783 164.207 53.1627 164.036 51.6197C164.023 51.4878 163.818 51.4878 163.831 51.6197C164.069 54.6464 162.75 57.4029 161.319 59.9944C160.6 61.2935 159.716 62.5728 158.76 63.7136C158.635 63.8652 158.503 64.0103 158.378 64.162C156.208 66.4502 153.65 68.3295 150.775 69.7539C146.713 71.7651 142.037 72.9191 137.481 72.6224C138.885 72.4905 140.277 72.1608 141.615 71.6596C145.598 70.1562 148.777 67.1953 151.23 63.7795C153.808 60.1922 155.424 56.1368 157.382 52.2066C158.332 50.3008 159.407 48.4347 160.837 46.852C162.381 45.1441 164.306 43.9176 166.469 43.1395C169.008 42.2229 171.692 41.8998 174.369 41.7349C175.668 41.6558 176.974 41.6294 178.286 41.5832C178.055 41.6756 177.831 41.7679 177.607 41.88C175.529 42.8955 174.184 44.7023 173.347 46.8125H173.36Z" fill="#EDA04C"/>
</svg>
